<svg width="24" height="24" viewBox="0 0 24 24" fill="none" xmlns="http://www.w3.org/2000/svg">
  <path d="M19.0781 0H4.92188C2.20795 0 0 2.20795 0 4.92188V19.0781C0 21.792 2.20795 24 4.92188 24H19.0781C21.792 24 24 21.792 24 19.0781V4.92188C24 2.20795 21.792 0 19.0781 0ZM22.5938 19.0781C22.5938 21.0166 21.0166 22.5938 19.0781 22.5938H4.92188C2.98336 22.5938 1.40625 21.0166 1.40625 19.0781V4.92188C1.40625 2.98336 2.98336 1.40625 4.92188 1.40625H19.0781C21.0166 1.40625 22.5938 2.98336 22.5938 4.92188V19.0781Z" fill="#161515" />
  <path d="M14.3272 5.79021C14.2461 5.48787 14.0522 5.23512 13.7812 5.07865C13.2217 4.75559 12.5035 4.94792 12.1804 5.5076L12 5.81998L11.8196 5.50756C11.4965 4.94801 10.7784 4.75559 10.2188 5.0786H10.2188C9.6592 5.40171 9.46683 6.11979 9.78989 6.67943L10.6468 8.16368L7.48491 13.6403H5.17969C4.53352 13.6403 4.00781 14.166 4.00781 14.8122C4.00781 15.4584 4.53352 15.9841 5.17969 15.9841H14.0794L12.7262 13.6403H10.1912L14.2101 6.67948C14.3666 6.4084 14.4082 6.09256 14.3272 5.79021Z" fill="#161515" />
  <path d="M18.8205 13.6407H16.5153L13.8946 9.10156L12.5415 11.4453L16.6104 18.4929C16.767 18.764 17.0196 18.9579 17.3221 19.039C17.423 19.066 17.5254 19.0794 17.6273 19.0794C17.8303 19.0794 18.0308 19.0262 18.2114 18.9219C18.771 18.5988 18.9633 17.8806 18.6402 17.3211L17.8684 15.9844H18.8205C19.4667 15.9844 19.9924 15.4587 19.9924 14.8125C19.9924 14.1664 19.4667 13.6407 18.8205 13.6407Z" fill="#161515" />
  <path d="M5.59036 16.9219L5.35988 17.3211C5.03682 17.8807 5.22924 18.5988 5.78883 18.9218C5.97291 19.0281 6.1741 19.0786 6.3728 19.0786C6.77808 19.0786 7.17282 18.8684 7.38966 18.4929L8.29669 16.9219H5.59036Z" fill="#161515" />
</svg>
