<svg width="32" height="32" viewBox="0 0 32 32" fill="none" xmlns="http://www.w3.org/2000/svg">
<rect width="32" height="26.6667" fill="#112145"/>
<path d="M21.3337 26.6667L16.0003 32L10.667 26.6667H21.3337Z" fill="#112145"/>
<path fill-rule="evenodd" clip-rule="evenodd" d="M5.33301 5.33333H10.4362L5.33301 10.2279V5.33333ZM15.7757 5.33333H18.6351L14.4804 9.32574C14.1456 9.64747 13.8928 9.89588 13.7199 10.0725C13.5446 10.252 13.3257 10.4947 13.0562 10.8027C11.8021 12.2589 11.75 13.5712 13.1881 14.9525L19.7738 21.281L19.8287 21.3333H16.5089L7.82058 12.9693L15.7757 5.33333ZM23.8015 5.33333H26.6663V5.34063L22.1826 9.64903L24.6557 11.9951L26.6094 10.1177L26.6663 10.1724V14.5272L23.1237 17.9315C23.007 18.0436 22.9176 18.1292 22.8555 18.1839C22.4418 18.5476 22.0673 18.6229 21.642 18.2144L16.6046 13.3737C16.183 12.9684 16.3034 12.5261 16.6397 12.2208C16.701 12.1651 16.7861 12.0747 16.9074 11.9581L23.8015 5.33333ZM26.6663 19.0264V21.3333H24.1652C24.3835 21.1614 24.5653 21.0127 24.7094 20.8854C24.9211 20.6979 25.2242 20.4123 25.621 20.0309L26.6663 19.0264ZM10.9122 21.3333H5.33301V15.9355L10.9122 21.3333Z" fill="white"/>
</svg>
