<svg width="24" height="24" viewBox="0 0 24 24" fill="none" xmlns="http://www.w3.org/2000/svg">
  <g clip-path="url(#clip0)">
    <path d="M14.3702 16.2793C13.9838 15.8734 13.5143 15.6631 13.0204 15.6631C12.5313 15.6631 12.0569 15.8734 11.6607 16.2744L10.5065 17.4286C10.4283 17.3846 10.3451 17.3455 10.2669 17.3064C10.1299 17.2379 10.0028 17.1743 9.89519 17.1059C8.77522 16.3967 7.75795 15.4675 6.78959 14.2741C6.32986 13.6921 6.01685 13.2031 5.79677 12.7287C6.09021 12.4548 6.36899 12.176 6.63797 11.9021C6.74557 11.7945 6.85317 11.6869 6.96076 11.5745C7.79707 10.7381 7.79707 9.6573 6.96076 8.82588L5.92393 7.78905C5.80655 7.67167 5.68918 7.5494 5.5718 7.43203C5.34194 7.19238 5.0974 6.94785 4.86265 6.72776C4.47628 6.3414 4.01166 6.13599 3.52259 6.13599C3.03841 6.13599 2.5689 6.33651 2.16297 6.72776L0.862043 8.02869C0.358299 8.53244 0.074638 9.14378 0.0159494 9.84804C-0.0769741 10.9729 0.255594 12.0195 0.509911 12.7091C1.12614 14.3768 2.05538 15.9272 3.42967 17.5851C5.10229 19.5806 7.11726 21.1603 9.4159 22.2705C10.2962 22.6911 11.4749 23.1801 12.7954 23.2682C12.8785 23.2731 12.9617 23.2779 13.0399 23.2779C13.9447 23.2779 14.7028 22.9503 15.2945 22.3047C15.2994 22.2998 15.3092 22.29 15.3141 22.2851C15.5097 22.0504 15.7347 21.8352 15.9743 21.6053C16.1406 21.4488 16.3069 21.2825 16.4683 21.1114C17.2704 20.275 17.2655 19.1746 16.4585 18.3677L14.3702 16.2793ZM15.5978 20.2848C15.451 20.4364 15.2994 20.5832 15.138 20.7397C14.8935 20.9793 14.6343 21.2238 14.3995 21.5026C14.0327 21.8939 13.6023 22.0748 13.035 22.0748C12.9763 22.0748 12.9225 22.0748 12.8639 22.0699C11.7488 21.9966 10.707 21.5613 9.92942 21.1896C7.78729 20.1528 5.90926 18.6807 4.34423 16.8173C3.05797 15.2718 2.19721 13.834 1.62499 12.2934C1.27775 11.3593 1.1457 10.6354 1.20439 9.95074C1.23863 9.53014 1.40491 9.17801 1.70814 8.87479L3.00417 7.58364C3.12155 7.47115 3.3074 7.33421 3.52748 7.33421C3.73778 7.33421 3.91385 7.46626 4.03612 7.58853C4.26598 7.80372 4.48606 8.02869 4.72082 8.26834C4.83819 8.39061 4.96046 8.51287 5.08273 8.63514L6.11956 9.67197C6.49125 10.0437 6.49125 10.3567 6.11956 10.7284C6.00707 10.8409 5.89948 10.9484 5.79188 11.0609C5.47398 11.3837 5.17076 11.6918 4.84308 11.9853C4.8333 11.9951 4.82841 12 4.81863 12.0097C4.46161 12.3668 4.52519 12.7238 4.60344 12.9585C4.60833 12.9732 4.61322 12.983 4.61811 12.9977C4.89199 13.6579 5.27347 14.279 5.86524 15.0273C6.92164 16.3282 8.03183 17.3406 9.2594 18.1182C9.4159 18.2209 9.58218 18.2992 9.7338 18.3774C9.86584 18.4459 9.993 18.5095 10.1006 18.578C10.1202 18.5877 10.1348 18.5975 10.1544 18.6073C10.5261 18.7932 10.9027 18.7296 11.2059 18.4215L12.5068 17.1205C12.6242 17.0032 12.8101 16.8613 13.0204 16.8613C13.2258 16.8613 13.3969 16.9983 13.5143 17.1205L15.6124 19.2186C15.9597 19.561 15.9548 19.9131 15.5978 20.2848Z" fill="#112145" />
    <path d="M16.4682 0.722046C12.3111 0.722046 8.93164 3.72005 8.93164 7.40276C8.93164 8.81618 9.44027 10.1954 10.3695 11.33C10.1934 11.6675 9.94891 11.9413 9.64568 12.137C9.36691 12.3228 9.22997 12.6505 9.30333 12.9733C9.3767 13.2961 9.6359 13.5308 9.96358 13.5797C10.6043 13.6678 11.8465 13.7167 13.0056 13.0173C13.2893 12.8461 13.3822 12.4793 13.211 12.1957C13.0398 11.912 12.673 11.8191 12.3894 11.9902C11.959 12.2495 11.4993 12.3668 11.0933 12.4108C11.3183 12.1272 11.4944 11.7995 11.6313 11.4327C11.7096 11.2224 11.6607 10.9828 11.509 10.8165C10.6043 9.83344 10.125 8.65478 10.125 7.40276C10.125 4.3803 12.9665 1.92027 16.4633 1.92027C19.9602 1.92027 22.8017 4.3803 22.8017 7.40276C22.8017 10.4252 19.9602 12.8852 16.4633 12.8852C15.8765 12.8852 15.2945 12.8168 14.732 12.6798C14.4092 12.6016 14.0865 12.7972 14.0082 13.12C13.9299 13.4428 14.1256 13.7656 14.4484 13.8438C15.1037 14.0052 15.7786 14.0884 16.4633 14.0884C20.6204 14.0884 23.9999 11.0904 23.9999 7.40765C24.0048 3.72005 20.6253 0.722046 16.4682 0.722046Z" fill="#112145" />
    <path d="M12.7812 7.40771C12.7812 7.74028 13.0502 8.00927 13.3828 8.00927H19.5549C19.8875 8.00927 20.1564 7.74028 20.1564 7.40771C20.1564 7.07514 19.8875 6.80615 19.5549 6.80615H13.3828C13.0502 6.80615 12.7812 7.07514 12.7812 7.40771Z" fill="#112145" />
    <path d="M13.9062 5.78393H19.0317C19.3643 5.78393 19.6333 5.51494 19.6333 5.18237C19.6333 4.8498 19.3643 4.58081 19.0317 4.58081H13.9062C13.5737 4.58081 13.3047 4.8498 13.3047 5.18237C13.3047 5.51494 13.5737 5.78393 13.9062 5.78393Z" fill="#112145" />
    <path d="M13.9062 10.2247H19.0317C19.3643 10.2247 19.6333 9.95573 19.6333 9.62316C19.6333 9.2906 19.3643 9.02161 19.0317 9.02161H13.9062C13.5737 9.02161 13.3047 9.2906 13.3047 9.62316C13.3047 9.95573 13.5737 10.2247 13.9062 10.2247Z" fill="#112145" />
  </g>
  <defs>
    <clipPath id="clip0">
      <rect width="24" height="24" fill="white" />
    </clipPath>
  </defs>
</svg>
