<svg width="16" height="16" viewBox="0 0 16 16" fill="none" xmlns="http://www.w3.org/2000/svg">
<path d="M5.88049 3.09868C5.88049 3.50188 5.88049 5.30155 5.88049 5.30155H4.2666V7.99524H5.88049V15.9999H9.19577V7.99546H11.4205C11.4205 7.99546 11.6288 6.70386 11.7298 5.29162C11.4403 5.29162 9.20831 5.29162 9.20831 5.29162C9.20831 5.29162 9.20831 3.72452 9.20831 3.44984C9.20831 3.17456 9.56977 2.80428 9.92704 2.80428C10.2836 2.80428 11.0362 2.80428 11.7333 2.80428C11.7333 2.43753 11.7333 1.17033 11.7333 9.62221e-09C10.8027 9.62221e-09 9.74405 9.62221e-09 9.27739 9.62221e-09C5.79854 -0.000185988 5.88049 2.69618 5.88049 3.09868Z" fill="white"/>
</svg>
