<svg width="40" height="18" viewBox="0 0 40 18" fill="none" xmlns="http://www.w3.org/2000/svg">
  <path d="M7.92432 10.1714C5.78631 10.1714 4.04688 11.9274 4.04688 14.0857C4.04688 16.244 5.78631 18 7.92432 18C10.0623 18 11.8018 16.244 11.8018 14.0857C11.8018 11.9274 10.0623 10.1714 7.92432 10.1714ZM7.92432 16.7851C6.44988 16.7851 5.2503 15.5741 5.2503 14.0857C5.2503 12.5972 6.44988 11.3863 7.92432 11.3863C9.39876 11.3863 10.5983 12.5972 10.5983 14.0857C10.5983 15.5741 9.39876 16.7851 7.92432 16.7851Z" fill="#0B3FC7" />
  <path d="M7.92309 12.5229C7.06962 12.5229 6.375 13.2239 6.375 14.0858C6.375 14.9473 7.06938 15.6486 7.92309 15.6486C8.7768 15.6486 9.47118 14.9476 9.47118 14.0858C9.47118 13.2239 8.77656 12.5229 7.92309 12.5229ZM7.92309 14.4337C7.73295 14.4337 7.57843 14.2777 7.57843 14.0858C7.57843 13.8938 7.73295 13.7378 7.92309 13.7378C8.11323 13.7378 8.26775 13.894 8.26775 14.0858C8.26775 14.2775 8.11323 14.4337 7.92309 14.4337Z" fill="#0B3FC7" />
  <path d="M31.9399 10.1714C29.8019 10.1714 28.0625 11.9274 28.0625 14.0857C28.0625 16.244 29.8019 18 31.9399 18C34.078 18 35.8174 16.244 35.8174 14.0857C35.8174 11.9274 34.0777 10.1714 31.9399 10.1714ZM31.9399 16.7851C30.4655 16.7851 29.2659 15.5741 29.2659 14.0857C29.2659 12.5972 30.4655 11.3863 31.9399 11.3863C33.4144 11.3863 34.614 12.5972 34.614 14.0857C34.614 15.5741 33.4144 16.7851 31.9399 16.7851Z" fill="#0B3FC7" />
  <path d="M31.9422 12.5115C31.0822 12.5115 30.3828 13.2178 30.3828 14.0857C30.3828 14.9536 31.0825 15.6599 31.9422 15.6599C32.8019 15.6599 33.5016 14.9538 33.5016 14.0857C33.5016 13.2176 32.8019 12.5115 31.9422 12.5115ZM31.9422 14.4451C31.7458 14.4451 31.5862 14.2837 31.5862 14.0857C31.5862 13.8874 31.7461 13.7263 31.9422 13.7263C32.1384 13.7263 32.2982 13.8877 32.2982 14.0857C32.2982 14.284 32.1384 14.4451 31.9422 14.4451Z" fill="#0B3FC7" />
  <path d="M39.9861 12.7224C39.7589 10.7655 39.2086 8.2196 37.8779 7.20471C35.8157 5.6317 28.9001 4.69285 27.5113 4.51791C23.9562 1.75142 21.6516 0.975607 20.7774 0.681367C20.6778 0.647836 20.5651 0.609932 20.537 0.597298C19.9475 0.299656 14.8756 -0.395488 9.79469 0.297471C5.1911 0.925313 2.67257 3.65414 1.97771 4.5218C0.884996 4.53419 0 5.43538 0 6.54139V12.4736C0 13.5871 0.897512 14.4932 2.00057 14.4932H2.93323C3.26562 14.4932 3.53494 14.2213 3.53494 13.8857C3.53494 13.5502 3.26562 13.2783 2.93323 13.2783H2.00057C1.56108 13.2783 1.20343 12.9172 1.20343 12.4736V6.54139C1.20343 6.09772 1.56108 5.73667 2.00057 5.73667H2.27472C2.47063 5.73667 2.65548 5.63899 2.76812 5.47693C2.79123 5.44388 5.12516 2.16059 9.95596 1.50164C14.9446 0.820833 19.5078 1.51963 20.0195 1.69408C20.1112 1.73782 20.2217 1.77499 20.3967 1.83403C21.2282 2.11394 23.4368 2.85743 26.9043 5.57995C26.9905 5.64774 27.0935 5.6905 27.2018 5.70362C29.4221 5.97332 35.5379 6.94303 37.1522 8.17417C37.9147 8.75585 38.5121 10.4654 38.7908 12.864C38.819 13.1063 38.7465 13.339 38.5874 13.5198C38.4303 13.6982 38.2134 13.7963 37.9768 13.7963H37.0896C36.7573 13.7963 36.4879 14.0682 36.4879 14.4038C36.4879 14.7393 36.7573 15.0112 37.0896 15.0112H37.9768C38.5535 15.0112 39.1037 14.7619 39.4866 14.3275C39.8717 13.8901 40.0539 13.305 39.9861 12.7224Z" fill="#0B3FC7" />
  <path d="M26.6191 13.5135H13.4103C13.0779 13.5135 12.8086 13.7854 12.8086 14.121C12.8086 14.4565 13.0779 14.7284 13.4103 14.7284H26.6191C26.9515 14.7284 27.2208 14.4565 27.2208 14.121C27.2208 13.7854 26.9515 13.5135 26.6191 13.5135Z" fill="#0B3FC7" />
  <path d="M16.8517 8.30005C16.5193 8.30005 16.25 8.57194 16.25 8.90748C16.25 9.24303 16.5193 9.51491 16.8517 9.51491H19.0956C19.428 9.51491 19.6973 9.24303 19.6973 8.90748C19.6973 8.57194 19.428 8.30005 19.0956 8.30005H16.8517Z" fill="#0B3FC7" />
  <path d="M15.0561 2.06921C14.7237 2.06921 14.4544 2.3411 14.4544 2.67665V5.71113H4.97281C4.64042 5.71113 4.37109 5.98302 4.37109 6.31857C4.37109 6.65411 4.64042 6.926 4.97281 6.926H25.1394C25.4718 6.926 25.7411 6.65411 25.7411 6.31857C25.7411 5.98302 25.4718 5.71113 25.1394 5.71113H15.6578V2.67665C15.6578 2.3411 15.3885 2.06921 15.0561 2.06921Z" fill="#0B3FC7" />
</svg>
