<svg width="40" height="18" viewBox="0 0 40 18" fill="none" xmlns="http://www.w3.org/2000/svg">
  <path d="M10.5986 10.496C8.52604 10.496 6.83984 12.1791 6.83984 14.248C6.83984 16.3168 8.52604 18 10.5986 18C12.6712 18 14.3572 16.3168 14.3572 14.248C14.3572 12.1791 12.671 10.496 10.5986 10.496ZM10.5986 16.8355C9.1693 16.8355 8.00644 15.6747 8.00644 14.248C8.00644 12.8212 9.1693 11.6605 10.5986 11.6605C12.0277 11.6605 13.1906 12.8212 13.1906 14.248C13.1906 15.6747 12.0277 16.8355 10.5986 16.8355Z" fill="#112145" />
  <path d="M10.5995 12.6591C9.72177 12.6591 9.00781 13.372 9.00781 14.2479C9.00781 15.1238 9.722 15.8367 10.5995 15.8367C11.477 15.8367 12.1912 15.1241 12.1912 14.2479C12.1912 13.3717 11.477 12.6591 10.5995 12.6591ZM10.5995 14.6722C10.365 14.6722 10.1744 14.482 10.1744 14.2479C10.1744 14.0138 10.365 13.8236 10.5995 13.8236C10.8338 13.8236 11.0246 14.0138 11.0246 14.2479C11.0244 14.482 10.8338 14.6722 10.5995 14.6722Z" fill="#112145" />
  <path d="M32.1377 10.496C30.0651 10.496 28.3789 12.1791 28.3789 14.248C28.3789 16.3168 30.0651 18 32.1377 18C34.2102 18 35.8964 16.3168 35.8964 14.248C35.8964 12.1791 34.2102 10.496 32.1377 10.496ZM32.1377 16.8355C30.7084 16.8355 29.5455 15.6747 29.5455 14.248C29.5455 12.8212 30.7084 11.6605 32.1377 11.6605C33.567 11.6605 34.7299 12.8212 34.7299 14.248C34.7299 15.6747 33.567 16.8355 32.1377 16.8355Z" fill="#112145" />
  <path d="M32.138 12.7144C31.2908 12.7144 30.6016 13.4023 30.6016 14.248C30.6016 15.0937 31.2908 15.7814 32.138 15.7814C32.9852 15.7814 33.6744 15.0934 33.6744 14.248C33.6744 13.4026 32.9852 12.7144 32.138 12.7144ZM32.138 14.6171C31.934 14.6171 31.7682 14.4516 31.7682 14.2482C31.7682 14.0447 31.934 13.8791 32.138 13.8791C32.3419 13.8791 32.5078 14.0447 32.5078 14.2482C32.5078 14.4516 32.3419 14.6171 32.138 14.6171Z" fill="#112145" />
  <path d="M19.9153 8.02515C19.5931 8.02515 19.332 8.28576 19.332 8.6074C19.332 8.92903 19.5931 9.18965 19.9153 9.18965H21.9832C22.3055 9.18965 22.5665 8.92903 22.5665 8.6074C22.5665 8.28576 22.3055 8.02515 21.9832 8.02515H19.9153Z" fill="#112145" />
  <path d="M26.5735 13.3274H15.9036C15.5814 13.3274 15.3203 13.588 15.3203 13.9096C15.3203 14.2313 15.5814 14.4919 15.9036 14.4919H26.5735C26.8957 14.4919 27.1568 14.2313 27.1568 13.9096C27.1568 13.588 26.8957 13.3274 26.5735 13.3274Z" fill="#112145" />
  <path d="M38.9601 9.89834V7.50715C38.9601 7.2852 38.8336 7.08235 38.6339 6.98453C38.4221 6.88042 33.4755 4.48528 28.6075 4.76033C27.821 4.0062 24.8193 1.19161 22.9355 0.328478C22.8723 0.299366 22.8044 0.282131 22.7351 0.277007C22.2801 0.24347 11.5246 -0.527896 5.88151 0.660127C5.73218 0.691568 5.60106 0.780072 5.5166 0.907002C5.32668 1.19161 3.89456 3.34709 3.26414 4.61058C3.00235 4.43753 2.68924 4.33622 2.35256 4.33622H1.6561C0.742888 4.33622 0 5.07777 0 5.98934V10.966C0 11.8775 0.742888 12.6191 1.6561 12.6191H2.35256C2.55718 12.6191 2.7527 12.5802 2.93376 12.5119C2.93492 12.555 2.93609 12.5956 2.93726 12.6391C2.96735 13.6778 3.80707 14.4916 4.84907 14.4916H5.41347C5.73569 14.4916 5.99677 14.231 5.99677 13.9093C5.99677 13.5877 5.73569 13.3271 5.41347 13.3271H4.84907C4.44263 13.3271 4.11505 13.0101 4.10338 12.6056C3.96806 7.90891 4.02779 5.87359 4.12018 5.55778C4.29027 4.98531 5.5278 3.00333 6.35468 1.75243C11.6065 0.726038 21.4068 1.35347 22.5424 1.43079C24.5111 2.38871 27.9444 5.73968 27.9794 5.77415C28.0996 5.89176 28.2645 5.95278 28.4327 5.93904C32.3796 5.63464 36.6059 7.35367 37.7937 7.88026V10.3723C37.7937 10.6939 38.0548 10.9545 38.377 10.9545C38.6286 10.9545 38.8334 11.1588 38.8334 11.4101V12.8715C38.8334 13.1228 38.6288 13.3271 38.377 13.3271H37.3612C37.0389 13.3271 36.7779 13.5877 36.7779 13.9093C36.7779 14.231 37.0389 14.4916 37.3612 14.4916H38.377C39.2718 14.4916 40 13.7647 40 12.8715V11.4101C39.9995 10.7221 39.5677 10.1329 38.9601 9.89834ZM2.84183 10.9662C2.84183 11.2357 2.62227 11.4548 2.35232 11.4548H1.65587C1.38592 11.4548 1.16636 11.2357 1.16636 10.9662V5.98958C1.16636 5.72011 1.38592 5.50095 1.65587 5.50095H2.35232C2.62227 5.50095 2.84183 5.72011 2.84183 5.98958V10.9662Z" fill="#112145" />
  <path d="M12.7056 2.11464C12.396 2.02637 12.0731 2.205 11.9842 2.51406L11.2182 5.18263H5.65752C5.3353 5.18263 5.07422 5.44324 5.07422 5.76488C5.07422 6.08651 5.3353 6.34713 5.65752 6.34713H11.6573C11.6576 6.34713 11.6578 6.34713 11.658 6.34713C11.6585 6.34713 11.659 6.34713 11.6594 6.34713H19.6058C19.6063 6.34713 19.6067 6.34713 19.6072 6.34713C19.6074 6.34713 19.6077 6.34713 19.6079 6.34713H25.9131C26.2353 6.34713 26.4964 6.08651 26.4964 5.76488C26.4964 5.44324 26.2353 5.18263 25.9131 5.18263H20.0524L19.3223 2.52058C19.2372 2.21036 18.9161 2.02776 18.6058 2.11277C18.295 2.19755 18.1121 2.51802 18.1973 2.82801L18.8431 5.18239H12.4317L13.1058 2.83453C13.1947 2.52547 13.0155 2.20314 12.7056 2.11464Z" fill="#112145" />
</svg>
