<svg width="152" height="21" viewBox="0 0 152 21" fill="none" xmlns="http://www.w3.org/2000/svg">
<path d="M29.7016 12.7177C30.3089 12.7177 30.812 12.6876 31.2099 12.6269C31.6077 12.5656 31.9216 12.4276 32.1515 12.2109C32.5155 11.8732 32.6976 11.3527 32.6976 10.6494C32.6976 10.2844 32.6538 9.97646 32.566 9.72669C32.4783 9.47665 32.3395 9.26366 32.1515 9.08797C31.9216 8.87127 31.6077 8.72958 31.2099 8.66171C30.812 8.59438 30.3085 8.56038 29.7016 8.56038H26.5636C25.9567 8.56038 25.4536 8.59438 25.0557 8.66171C24.6573 8.72958 24.344 8.87127 24.1141 9.08797C23.9252 9.26366 23.7869 9.47665 23.6996 9.72669C23.6118 9.97593 23.568 10.2844 23.568 10.6494C23.568 11.3527 23.7501 11.8732 24.1141 12.2109C24.344 12.4276 24.6573 12.5656 25.0557 12.6269C25.4536 12.6876 25.9567 12.7177 26.5636 12.7177H29.7016ZM25.9972 15.2327C24.9043 15.2327 23.9758 15.1276 23.2134 14.9181C22.4512 14.7089 21.8198 14.3603 21.3203 13.8737C20.9295 13.4823 20.6249 13.0117 20.4097 12.4644C20.194 11.917 20.0858 11.2981 20.0858 10.6086C20.0858 9.93254 20.1973 9.32398 20.4197 8.78329C20.6425 8.24287 20.9492 7.77613 21.3408 7.38388C21.8403 6.8973 22.4712 6.5528 23.234 6.34986C23.9963 6.14732 24.9236 6.04598 26.0173 6.04598H30.2483C31.3416 6.04598 32.2697 6.14692 33.032 6.34986C33.7938 6.5528 34.4257 6.8973 34.9247 7.38388C35.3159 7.77613 35.6234 8.24287 35.8454 8.78329C36.0677 9.32398 36.1798 9.93254 36.1798 10.6086C36.1798 11.2981 36.071 11.917 35.8559 12.4644C35.6398 13.0113 35.3355 13.4823 34.9448 13.8737C34.4454 14.3603 33.8139 14.7089 33.052 14.9181C32.2897 15.1276 31.3612 15.2327 30.2684 15.2327H25.9972ZM38.1815 6.04598H47.5144C48.6077 6.04598 49.5359 6.15102 50.2977 6.35978C51.0596 6.56934 51.6911 6.91793 52.1906 7.40451C52.5817 7.79637 52.886 8.26695 53.1015 8.81385C53.3167 9.36116 53.425 9.98017 53.425 10.6693C53.425 11.3457 53.3139 11.9539 53.0911 12.495C52.8683 13.0356 52.5617 13.5021 52.1701 13.8944C51.671 14.381 51.0391 14.7259 50.2776 14.9284C49.515 15.1305 48.5873 15.2327 47.494 15.2327C45.5302 15.2327 43.5664 15.2327 41.6031 15.2327C41.6031 16.8817 41.6031 18.5313 41.6031 20.1809H38.1815V6.04598ZM41.6031 8.54013V12.7381H46.9469C47.5546 12.7381 48.0573 12.7037 48.4557 12.6364C48.853 12.5693 49.1672 12.4276 49.3967 12.2109C49.7612 11.8732 49.9438 11.3457 49.9438 10.6288C49.9438 9.92592 49.7612 9.39886 49.3967 9.04709C49.1672 8.83079 48.853 8.69188 48.4557 8.63155C48.0573 8.57122 47.5538 8.54013 46.9469 8.54013H41.6031ZM68.9302 15.2327H60.7314C59.6395 15.2327 58.71 15.1268 57.9474 14.9181C57.1859 14.7097 56.554 14.3603 56.0549 13.8737C55.6629 13.4823 55.3595 13.0109 55.1443 12.4644C54.9291 11.9174 54.82 11.2981 54.82 10.6086C54.82 9.93254 54.9321 9.32358 55.1539 8.78329C55.3758 8.2434 55.6834 7.77613 56.0755 7.38388C56.5745 6.8973 57.2063 6.5524 57.9682 6.34986C58.7301 6.14771 59.6582 6.04598 60.7515 6.04598H68.9302C68.9302 7.02787 68.9302 7.95526 68.9302 8.93702C67.9886 8.67746 67.4686 8.36696 61.2982 8.54013C60.6934 8.5572 60.1864 8.57493 59.7899 8.64147C59.3925 8.70802 59.0782 8.85143 58.8483 9.06733C58.4843 9.4191 58.3021 9.94617 58.3021 10.6494C58.3021 11.366 58.4843 11.893 58.8483 12.2312C59.0782 12.4475 59.3925 12.5872 59.7899 12.6471C60.1868 12.7066 60.6922 12.7298 61.2982 12.7381C66.8422 12.8166 67.2605 12.8241 68.9302 12.4057V15.2327ZM71.4176 15.2327V0.509037H89.3039L86.6209 3.42945H75.1224V15.2327H71.4176ZM85.6476 6.04598H94.9796C96.0729 6.04598 97.0019 6.15181 97.7629 6.35978C98.5243 6.56815 99.1605 6.91621 99.6557 7.40451C100.048 7.79187 100.352 8.26774 100.567 8.81385C100.781 9.36076 100.891 9.98017 100.891 10.6693C100.891 11.3457 100.778 11.9555 100.556 12.495C100.336 13.0345 100.028 13.5062 99.6357 13.8944C99.1404 14.3827 98.5056 14.7259 97.7429 14.9284C96.9807 15.1313 96.0491 15.2327 94.9587 15.2327H89.0682V20.1809H85.6476V6.04598ZM89.0682 8.54013V12.7381H94.4129C95.0201 12.7381 95.5242 12.7025 95.9212 12.6364C96.3173 12.5702 96.6333 12.4247 96.8623 12.2109C97.2238 11.8732 97.4085 11.3457 97.4085 10.6288C97.4085 9.92592 97.2275 9.39714 96.8623 9.04709C96.6346 8.8296 96.3185 8.69188 95.9212 8.63155C95.5234 8.57122 95.0168 8.54013 94.4129 8.54013H89.0682ZM116.821 15.3947C116.821 16.2566 116.725 16.9682 116.537 17.5144C116.351 18.0601 116.052 18.5152 115.667 18.8832C115.178 19.3504 114.569 19.6926 113.835 19.8869C113.1 20.0813 112.153 20.1809 111.011 20.1809H105.168L102.701 17.6863H110.565C111.173 17.6863 111.669 17.6482 112.053 17.5747C112.436 17.5019 112.742 17.3233 112.974 17.0575C113.117 16.8938 113.233 16.6879 113.298 16.4395C113.364 16.1905 113.4 15.8681 113.4 15.4757V15.2327H108.197C106.959 15.2327 105.978 15.1331 105.271 14.9387C104.565 14.7444 104.015 14.4372 103.622 14.0366C103.275 13.6835 103.027 13.2568 102.893 12.7584C102.76 12.2597 102.69 11.5891 102.69 10.7508V6.04598C103.831 6.04598 105.179 6.04677 106.32 6.04677C105.883 6.82242 105.936 8.52241 105.982 10.4763C105.994 10.9455 106.02 11.3263 106.094 11.602C106.166 11.8769 106.286 12.0989 106.448 12.2609C106.649 12.4631 106.936 12.5975 107.298 12.6566C107.66 12.7158 108.142 12.7475 108.736 12.7475C110.247 12.7475 111.888 12.7177 113.4 12.7177C113.408 9.53817 113.515 6.42805 113.008 6.04598H116.821V15.3947ZM134.411 6.04598V15.2327H130.989V8.54013H122.851V15.2327H119.43V6.04598H134.411ZM152 6.04598V15.2327H148.579V8.54013H140.441V15.2327H137.02V6.04598H152Z" fill="#112145"/>
<path d="M18.7879 0.558109L10.0514 6.94425L20.4762 15.1672H14.7934L7.23455 9.01758L3.51423 11.7267L3.51757 15.1672H0.0272788L0 0.558109H3.45205L3.47171 7.76448L13.3833 0.558109H18.7879Z" fill="#112145"/>
</svg>
