<svg width="32" height="32" viewBox="0 0 32 32" fill="none" xmlns="http://www.w3.org/2000/svg">
  <g clip-path="url(#clip0)">
    <path d="M24.2593 17.0322C23.4056 17.0322 22.7109 17.7269 22.7109 18.5806C22.7109 19.4343 23.4056 20.129 24.2593 20.129C25.113 20.129 25.8077 19.4343 25.8077 18.5806C25.8077 17.7269 25.113 17.0322 24.2593 17.0322ZM24.2593 19.0967C23.9749 19.0967 23.7432 18.8655 23.7432 18.5806C23.7432 18.2957 23.9749 18.0645 24.2593 18.0645C24.5437 18.0645 24.7755 18.2957 24.7755 18.5806C24.7755 18.8655 24.5437 19.0967 24.2593 19.0967Z" fill="white" />
    <path d="M7.74175 17.0322C6.88807 17.0322 6.19336 17.7269 6.19336 18.5806C6.19336 19.4343 6.88807 20.129 7.74175 20.129C8.59542 20.129 9.29013 19.4343 9.29013 18.5806C9.29013 17.7269 8.59542 17.0322 7.74175 17.0322ZM7.74175 19.0967C7.45736 19.0967 7.22562 18.8655 7.22562 18.5806C7.22562 18.2957 7.45736 18.0645 7.74175 18.0645C8.02613 18.0645 8.25788 18.2957 8.25788 18.5806C8.25788 18.8655 8.02613 19.0967 7.74175 19.0967Z" fill="white" />
    <path d="M27.5174 20.129H32V16.2229C32 14.9393 31.0797 13.8668 29.8121 13.6722L28.5383 13.4761L29.633 12.387H31.4839V11.3548H29.2057L27.5107 13.0492L27.2779 13.2758C25.695 12.9987 24.1595 12.3896 22.8232 11.4988C21.1634 10.3917 19.231 9.8064 17.2351 9.8064C15.3156 9.8064 13.4452 10.3514 11.8266 11.3816L10.9791 11.921C9.43793 12.9011 7.65884 13.4193 5.83277 13.4193C4.61006 13.4193 3.43742 13.795 2.44284 14.5058C0.913032 15.5984 0 17.3723 0 19.2521V20.129H4.48258C4.79019 20.7736 5.28155 21.3119 5.89058 21.6774H2.06452V22.7096H29.9355V21.6774H26.1094C26.7185 21.3119 27.2098 20.7736 27.5174 20.129ZM4.17032 19.0967H1.03484C1.08335 17.6077 1.82606 16.2147 3.04258 15.3455C3.86168 14.7612 4.82684 14.4516 5.83277 14.4516C7.85497 14.4516 9.82606 13.8776 11.5324 12.7917L12.3804 12.2523C13.8333 11.3274 15.5123 10.8387 17.2351 10.8387C19.0266 10.8387 20.7608 11.3641 22.2508 12.3571C23.777 13.3744 25.5412 14.0593 27.3533 14.338L29.6552 14.6926C30.1507 14.769 30.5548 15.0709 30.7783 15.4838H29.9355V16.5161H30.9677V17.0322H29.9355V18.0645H30.9677V19.0967H27.8297C27.8539 18.9274 27.871 18.7561 27.871 18.5806C27.871 16.5888 26.2503 14.9677 24.2581 14.9677C22.2658 14.9677 20.6452 16.5888 20.6452 18.5806C20.6452 18.7561 20.6622 18.9274 20.6865 19.0967H11.3135C11.3378 18.9274 11.3548 18.7561 11.3548 18.5806C11.3548 16.5888 9.73419 14.9677 7.74194 14.9677C5.74968 14.9677 4.12903 16.5888 4.12903 18.5806C4.12903 18.7561 4.14606 18.9274 4.17032 19.0967ZM7.74194 21.1612C6.31897 21.1612 5.16129 20.0036 5.16129 18.5806C5.16129 17.1576 6.31897 15.9999 7.74194 15.9999C9.1649 15.9999 10.3226 17.1576 10.3226 18.5806C10.3226 20.0036 9.1649 21.1612 7.74194 21.1612ZM9.59329 21.6774C10.2023 21.3119 10.6937 20.7736 11.0013 20.129H20.9987C21.3063 20.7736 21.7977 21.3119 22.4067 21.6774H9.59329ZM24.2581 21.1612C22.8351 21.1612 21.6774 20.0036 21.6774 18.5806C21.6774 17.1576 22.8351 15.9999 24.2581 15.9999C25.681 15.9999 26.8387 17.1576 26.8387 18.5806C26.8387 20.0036 25.681 21.1612 24.2581 21.1612Z" fill="white" />
    <path d="M21.9646 13.5061C20.4296 12.4826 18.6613 11.871 17.2358 11.871C15.7096 11.871 14.2231 12.304 12.9354 13.1231L12.0874 13.663C12.0017 13.7172 11.9155 13.7832 11.8293 13.8503C11.7586 13.905 11.6884 13.9623 11.6162 14.0031L11.1914 14.2452L12.0688 16H20.922L22.394 13.7925L21.9646 13.5061ZM20.3697 14.9677H12.7068L12.5297 14.6132C12.5674 14.5843 12.6046 14.5574 12.6417 14.5337L13.4892 13.9938C14.6108 13.28 15.9062 12.9032 17.2358 12.9032C18.4972 12.9032 19.9109 13.4761 20.9545 14.0908L20.3697 14.9677Z" fill="white" />
    <path d="M32.001 21.6774H30.9688V22.7096H32.001V21.6774Z" fill="white" />
    <path d="M1.03226 21.6774H0V22.7096H1.03226V21.6774Z" fill="white" />
  </g>
  <defs>
    <clipPath id="clip0">
      <rect width="32" height="32" fill="white" />
    </clipPath>
  </defs>
</svg>
