<svg width="32" height="32" viewBox="0 0 32 32" fill="none" xmlns="http://www.w3.org/2000/svg">
  <path d="M16 32C24.8367 32 32 24.8367 32 16C32 7.16333 24.8367 0 16 0C7.16333 0 0 7.16333 0 16C0.0100097 24.8325 7.16748 31.99 16 32ZM16 1.06665C24.2476 1.06665 30.9333 7.75244 30.9333 16C30.9333 24.2476 24.2476 30.9333 16 30.9333C7.75244 30.9333 1.06665 24.2476 1.06665 16C1.07617 7.75635 7.75635 1.07617 16 1.06665Z" fill="#161515" />
  <path d="M16.0002 29.3333C23.364 29.3333 29.3335 23.3638 29.3335 16C29.3335 8.63623 23.364 2.66675 16.0002 2.66675C8.63647 2.66675 2.66699 8.63623 2.66699 16C2.67505 23.3604 8.63989 29.3252 16.0002 29.3333ZM4.14697 19.1558L7.43335 18.2805C8.71362 17.9387 10.0803 18.2114 11.1313 19.0183C12.1826 19.8252 12.7993 21.0747 12.8003 22.3999V27.8401C8.57715 26.6892 5.28247 23.3828 4.14697 19.1558ZM13.8669 28.0774V22.3999C13.866 20.7437 13.0952 19.1816 11.7815 18.1731C10.4675 17.1643 8.75952 16.8232 7.15918 17.2502L3.91919 18.1125C3.68213 16.7715 3.67212 15.3999 3.8894 14.0554C6.41772 13.1418 11.1084 11.7334 16.0002 11.7334C20.8921 11.7334 25.5828 13.1418 28.1111 14.0554C28.3284 15.3999 28.3184 16.7715 28.0813 18.1125L24.8413 17.2502C23.241 16.8232 21.533 17.1643 20.219 18.1731C18.9053 19.1816 18.1345 20.7437 18.1335 22.3999V28.0774C16.7227 28.3298 15.2778 28.3298 13.8669 28.0774ZM19.2002 27.8401V22.3999C19.2012 21.075 19.8176 19.8254 20.8689 19.0186C21.9199 18.2117 23.2864 17.939 24.5667 18.2805L27.8535 19.1558C26.718 23.3828 23.4233 26.6892 19.2002 27.8401ZM16.0002 3.7334C21.5522 3.74072 26.4094 7.4707 27.8499 12.8325C24.0405 11.4844 20.0403 10.7534 16.0002 10.6667C11.9602 10.7534 7.95996 11.4844 4.15063 12.8325C5.59106 7.4707 10.4482 3.74072 16.0002 3.7334Z" fill="#161515" />
  <path d="M19.7334 16C19.7334 13.9382 18.0618 12.2666 16 12.2666C13.9382 12.2666 12.2666 13.9382 12.2666 16C12.2666 18.0618 13.9382 19.7334 16 19.7334C18.0608 19.731 19.731 18.0608 19.7334 16ZM13.3333 16C13.3333 14.5273 14.5273 13.3333 16 13.3333C17.4727 13.3333 18.6667 14.5273 18.6667 16C18.6667 17.4727 17.4727 18.6667 16 18.6667C14.5281 18.6648 13.3352 17.4719 13.3333 16Z" fill="#161515" />
  <path d="M17.6006 16C17.6006 15.1165 16.884 14.3999 16.0005 14.3999C15.1169 14.3999 14.4004 15.1165 14.4004 16C14.4004 16.8835 15.1169 17.6001 16.0005 17.6001C16.884 17.6001 17.6006 16.8835 17.6006 16ZM15.467 16C15.467 15.7056 15.7061 15.4666 16.0005 15.4666C16.2949 15.4666 16.5339 15.7056 16.5339 16C16.5339 16.2944 16.2949 16.5334 16.0005 16.5334C15.7061 16.5334 15.467 16.2944 15.467 16Z" fill="#161515" />
</svg>
