<svg width="40" height="15" viewBox="0 0 40 15" fill="none" xmlns="http://www.w3.org/2000/svg">
  <path d="M33.0556 9.93127C32.2474 9.93127 31.5898 10.5955 31.5898 11.4117C31.5898 12.228 32.2474 12.8922 33.0556 12.8922C33.8637 12.8922 34.5213 12.228 34.5213 11.4117C34.5213 10.5955 33.864 9.93127 33.0556 9.93127ZM33.0556 11.747C32.8726 11.747 32.7236 11.5966 32.7236 11.4117C32.7236 11.2267 32.8726 11.0764 33.0556 11.0764C33.2388 11.0764 33.3876 11.2269 33.3876 11.4117C33.3876 11.5966 33.2388 11.747 33.0556 11.747Z" fill="#112145" />
  <path d="M7.74686 9.93958C6.94302 9.93958 6.28906 10.6001 6.28906 11.412C6.28906 12.2237 6.94302 12.8842 7.74686 12.8842C8.55071 12.8842 9.20467 12.2237 9.20467 11.412C9.20467 10.5999 8.55071 9.93958 7.74686 9.93958ZM7.74686 11.7391C7.56818 11.7391 7.42284 11.5923 7.42284 11.412C7.42284 11.2318 7.56818 11.0847 7.74686 11.0847C7.92555 11.0847 8.0709 11.2315 8.0709 11.412C8.0709 11.5925 7.92555 11.7391 7.74686 11.7391Z" fill="#112145" />
  <path d="M39.8773 7.93344C37.4585 4.86648 30.6659 4.27076 29.5119 4.19106C23.2934 0.0231348 19.4034 0.0158073 15.6404 0.00847827C15.2293 0.00779117 14.8182 0.00686884 14.4039 0.000684971C14.3756 0.000226907 14.3479 0 14.3196 0C10.9713 0 6.32285 2.95062 5.42536 3.54175H1.6669C1.35376 3.54175 1.10002 3.79804 1.10002 4.11433V6.93441L0.166012 7.87779C0.0406163 8.00444 -0.0187898 8.18308 0.00524614 8.36036L0.521568 12.166C0.560116 12.4495 0.80002 12.6609 1.08324 12.6609H2.639C2.95215 12.6609 3.20588 12.4046 3.20588 12.0883C3.20588 11.772 2.95215 11.5157 2.639 11.5157H1.57756L1.16646 8.48656L2.06735 7.57638C2.1737 7.46897 2.23333 7.32353 2.23333 7.17145V4.68669H5.59497C5.70767 4.68669 5.81764 4.65279 5.91129 4.58934C5.96277 4.55453 11.0872 1.09821 14.3865 1.14539C14.8055 1.1518 15.2216 1.15249 15.6375 1.15341C19.424 1.16074 23.0004 1.16761 29.0083 5.22858C29.0931 5.28583 29.1915 5.31904 29.2931 5.32454C29.3656 5.32843 36.4594 5.74481 38.8662 8.49824V11.939H38.0005C37.6873 11.939 37.4336 12.1953 37.4336 12.5116C37.4336 12.8279 37.6873 13.0841 38.0005 13.0841H39.4331C39.7462 13.0841 40 12.8279 40 12.5116V8.29005C40.0009 8.16064 39.9574 8.0349 39.8773 7.93344Z" fill="#112145" />
  <path d="M28.3054 11.9392H12.8013C12.4881 11.9392 12.2344 12.1955 12.2344 12.5118C12.2344 12.8281 12.4881 13.0844 12.8013 13.0844H28.3054C28.6185 13.0844 28.8723 12.8281 28.8723 12.5118C28.8723 12.1955 28.6185 11.9392 28.3054 11.9392Z" fill="#112145" />
  <path d="M7.74787 7.82349C5.78894 7.82349 4.19531 9.43313 4.19531 11.4117C4.19531 13.3903 5.78894 15 7.74787 15C9.7068 15 11.3004 13.3903 11.3004 11.4117C11.3007 9.43313 9.7068 7.82349 7.74787 7.82349ZM7.74787 13.8548C6.4141 13.8548 5.32908 12.7589 5.32908 11.4117C5.32908 10.0646 6.4141 8.96865 7.74787 8.96865C9.08164 8.96865 10.1667 10.0648 10.1667 11.4117C10.1667 12.7587 9.08164 13.8548 7.74787 13.8548Z" fill="#112145" />
  <path d="M33.0565 7.82349C31.0975 7.82349 29.5039 9.43313 29.5039 11.4117C29.5039 13.3903 31.0975 15 33.0565 15C35.0154 15 36.609 13.3903 36.609 11.4117C36.6093 9.43313 35.0154 7.82349 33.0565 7.82349ZM33.0565 13.8548C31.7227 13.8548 30.6377 12.7589 30.6377 11.4117C30.6377 10.0646 31.7227 8.96865 33.0565 8.96865C34.3902 8.96865 35.4753 10.0648 35.4753 11.4117C35.4753 12.7587 34.3902 13.8548 33.0565 13.8548Z" fill="#112145" />
  <path d="M26.6143 5.22536C26.6143 4.90906 26.3605 4.65278 26.0474 4.65278H19.7037L18.7262 2.67967C18.5858 2.39681 18.2454 2.2823 17.9656 2.42384C17.6856 2.56538 17.5722 2.90939 17.7123 3.19201L18.4359 4.65254H11.9918L10.3367 3.58595C10.0721 3.41555 9.72218 3.4941 9.55393 3.7607C9.38545 4.02729 9.463 4.38137 9.72694 4.55132L11.5217 5.70769C11.6129 5.76633 11.7185 5.7977 11.8267 5.7977H26.0478C26.3605 5.79793 26.6143 5.54165 26.6143 5.22536Z" fill="#112145" />
</svg>
