<svg width="24" height="24" viewBox="0 0 24 24" fill="none" xmlns="http://www.w3.org/2000/svg">
  <path d="M20.1287 3.87L20.1289 3.87019C24.6221 8.35855 24.6221 15.6435 20.1385 20.1318C16.3619 23.9081 10.615 24.5077 6.21146 21.9375L5.91142 21.6975L5.60128 21.9316C3.95792 23.172 2.21165 23.4063 0.983448 23.2435C2.31572 22.5463 3.12784 21.2522 3.58771 20.2618L3.75294 19.9059L3.44655 19.6608L3.35571 19.5881C-0.616108 15.0707 -0.443999 8.18077 3.86684 3.87L3.86703 3.86981C8.35529 -0.623166 15.6352 -0.623437 20.1287 3.87Z" stroke="#161515" />
  <mask id="path-2-outside-1" maskUnits="userSpaceOnUse" x="5.99707" y="4.44144" width="13" height="14" fill="black">
    <rect fill="white" x="5.99707" y="4.44144" width="13" height="14" />
    <path d="M16.532 16.5599C16.7814 16.2806 17.0607 16.0312 17.3251 15.7619C17.7192 15.3678 17.7192 14.889 17.3201 14.48C16.8562 14.0111 16.3924 13.5473 15.9235 13.0834C15.5444 12.7043 15.0656 12.7043 14.6815 13.0834C14.3922 13.3727 14.0979 13.662 13.8136 13.9563C13.7388 14.0361 13.6689 14.056 13.5742 14.0012C13.3846 13.8964 13.1851 13.8166 13.0055 13.7019C12.1576 13.1732 11.4493 12.4898 10.8258 11.7217C10.5166 11.3426 10.2372 10.9336 10.0477 10.4747C10.0078 10.38 10.0178 10.3201 10.0926 10.2453C10.3869 9.96599 10.6712 9.6767 10.9555 9.38741L10.9555 9.3874C11.3545 8.98338 11.3545 8.51452 10.9555 8.1105C10.7311 7.88106 10.5016 7.65661 10.2722 7.42717C10.0377 7.19274 9.80828 6.95831 9.56886 6.72388C9.18479 6.34979 8.70595 6.3448 8.32188 6.72388C8.02759 7.01317 7.74826 7.30746 7.44899 7.59177C7.17465 7.85612 7.03499 8.17534 7.00506 8.54943C6.96017 9.15795 7.10981 9.73156 7.3193 10.2952C7.75325 11.4574 8.40667 12.4849 9.19975 13.4276C10.2722 14.7045 11.5541 15.717 13.0554 16.4452C13.7288 16.7744 14.4321 17.0288 15.1903 17.0687C15.709 17.0986 16.1679 16.9689 16.532 16.5599Z" />
  </mask>
  <path d="M17.3251 15.7619L16.618 15.0547L16.6114 15.0614L17.3251 15.7619ZM16.532 16.5599L15.7861 15.8939L15.7851 15.895L16.532 16.5599ZM15.1903 17.0687L15.2479 16.0704L15.2428 16.0701L15.1903 17.0687ZM13.0554 16.4452L13.4946 15.5468L13.4918 15.5455L13.0554 16.4452ZM9.19975 13.4276L9.96551 12.7844L9.96497 12.7838L9.19975 13.4276ZM7.3193 10.2952L6.38195 10.6436L6.38248 10.645L7.3193 10.2952ZM7.00506 8.54943L6.00823 8.46969L6.00777 8.47586L7.00506 8.54943ZM7.44899 7.59177L6.76023 6.86674L6.7551 6.87168L7.44899 7.59177ZM8.32188 6.72388L9.02291 7.43701L9.02434 7.4356L8.32188 6.72388ZM9.56886 6.72388L10.2685 6.00936L10.2666 6.00752L9.56886 6.72388ZM10.2722 7.42717L10.9793 6.72005L10.9793 6.72005L10.2722 7.42717ZM10.9555 8.1105L10.2407 8.80981L10.244 8.81321L10.9555 8.1105ZM10.9555 9.3874L10.244 8.68469L10.2341 8.69474L10.2245 8.70508L10.9555 9.3874ZM10.9555 9.38741L11.6687 10.0883L11.6778 10.0791L11.6866 10.0697L10.9555 9.38741ZM10.0926 10.2453L9.40417 9.52L9.39472 9.52897L9.38549 9.5382L10.0926 10.2453ZM10.0477 10.4747L10.972 10.093L10.9693 10.0867L10.0477 10.4747ZM10.8258 11.7217L11.6022 11.0915L11.6007 11.0896L10.8258 11.7217ZM13.0055 13.7019L13.544 12.8591L13.5346 12.8533L13.0055 13.7019ZM13.5742 14.0012L14.0752 13.1357L14.0666 13.1307L14.0579 13.1259L13.5742 14.0012ZM13.8136 13.9563L13.0944 13.2615L13.0892 13.2669L13.0841 13.2723L13.8136 13.9563ZM14.6815 13.0834L13.979 12.3717L13.9744 12.3763L14.6815 13.0834ZM15.9235 13.0834L15.2164 13.7905L15.2202 13.7943L15.9235 13.0834ZM17.3201 14.48L18.0359 13.7817L18.031 13.7767L17.3201 14.48ZM16.6114 15.0614C16.4173 15.2591 16.0481 15.6005 15.7861 15.8939L17.278 17.226C17.5148 16.9607 17.7041 16.8033 18.0388 16.4624L16.6114 15.0614ZM15.7851 15.895C15.6727 16.0213 15.5428 16.0874 15.2479 16.0704L15.1327 18.067C15.8752 18.1099 16.6631 17.9166 17.2789 17.2249L15.7851 15.895ZM15.2428 16.0701C14.6748 16.0402 14.1102 15.8478 13.4946 15.5468L12.6162 17.3436C13.3474 17.7011 14.1895 18.0174 15.1377 18.0673L15.2428 16.0701ZM13.4918 15.5455C12.1211 14.8806 10.9503 13.957 9.96551 12.7844L8.43399 14.0707C9.59401 15.4519 10.987 16.5534 12.619 17.345L13.4918 15.5455ZM9.96497 12.7838C9.22829 11.9081 8.64172 10.978 8.25612 9.94538L6.38248 10.645C6.86479 11.9367 7.58505 13.0616 8.43453 14.0713L9.96497 12.7838ZM8.25665 9.94679C8.06703 9.43663 7.97295 9.02151 8.00235 8.62301L6.00777 8.47586C5.94739 9.29439 6.15259 10.0265 6.38195 10.6436L8.25665 9.94679ZM8.00188 8.62918C8.01387 8.47928 8.05756 8.39406 8.14287 8.31185L6.7551 6.87168C6.29174 7.31819 6.05611 7.87141 6.00825 8.46969L8.00188 8.62918ZM8.13773 8.31677C8.43592 8.0335 8.77039 7.68524 9.02291 7.43701L7.62084 6.01075C7.28479 6.3411 7.06061 6.58142 6.76024 6.86676L8.13773 8.31677ZM9.02434 7.4356C9.0458 7.41442 9.05049 7.41638 9.03357 7.42396C9.01513 7.43222 8.98308 7.44155 8.94248 7.44144C8.90208 7.44132 8.87174 7.43191 8.85603 7.42485C8.84179 7.41845 8.84842 7.41812 8.87112 7.44023L10.2666 6.00752C9.92601 5.67579 9.47161 5.44296 8.94826 5.44144C8.42264 5.43992 7.96387 5.67218 7.61941 6.01216L9.02434 7.4356ZM8.86924 7.43839C9.10429 7.66854 9.32 7.88922 9.56506 8.13428L10.9793 6.72005C10.7555 6.49625 10.5123 6.24807 10.2685 6.00936L8.86924 7.43839ZM9.56506 8.13428C9.80549 8.37471 10.0207 8.58495 10.2407 8.8098L11.6703 7.4112C11.4414 7.17718 11.1977 6.93851 10.9793 6.72005L9.56506 8.13428ZM10.244 8.81321C10.2766 8.84619 10.2795 8.85879 10.2735 8.84589C10.2663 8.83052 10.2548 8.79615 10.2548 8.74895C10.2548 8.70175 10.2663 8.66738 10.2735 8.65201C10.2795 8.63911 10.2766 8.65171 10.244 8.68469L11.667 10.0901C12.0018 9.75109 12.2548 9.29321 12.2548 8.74895C12.2548 8.20469 12.0018 7.74681 11.667 7.4078L10.244 8.81321ZM10.2245 8.70508L10.2244 8.70509L11.6866 10.0697L11.6866 10.0697L10.2245 8.70508ZM10.2423 8.68647C9.95594 8.97783 9.68374 9.25465 9.40417 9.52L10.781 10.9706C11.09 10.6773 11.3864 10.3756 11.6687 10.0883L10.2423 8.68647ZM9.38549 9.5382C9.27692 9.64677 9.10403 9.8531 9.04464 10.1662C8.98565 10.4772 9.07007 10.7298 9.12607 10.8628L10.9693 10.0867C10.9854 10.1249 11.0549 10.3002 11.0096 10.5389C10.9639 10.7797 10.8335 10.9187 10.7997 10.9524L9.38549 9.5382ZM9.12344 10.8565C9.36427 11.4396 9.7084 11.9339 10.051 12.3538L11.6007 11.0896C11.3247 10.7513 11.1102 10.4277 10.972 10.093L9.12344 10.8565ZM10.0494 12.3519C10.723 13.1817 11.5112 13.9486 12.4765 14.5505L13.5346 12.8533C12.804 12.3977 12.1757 11.7979 11.6022 11.0915L10.0494 12.3519ZM12.4672 14.5446C12.6061 14.6334 12.7425 14.7021 12.8436 14.752C12.9584 14.8087 13.0224 14.8388 13.0905 14.8764L14.0579 13.1259C13.9364 13.0588 13.8059 12.9966 13.7287 12.9585C13.6377 12.9136 13.5846 12.8851 13.5439 12.8592L12.4672 14.5446ZM13.0731 14.8666C13.2596 14.9745 13.554 15.0819 13.9066 15.0079C14.2322 14.9397 14.4408 14.7494 14.5431 14.6402L13.0841 13.2723C13.1116 13.243 13.2478 13.1026 13.4961 13.0505C13.7714 12.9928 13.9835 13.0827 14.0752 13.1357L13.0731 14.8666ZM14.5328 14.6511C14.8091 14.3651 15.0912 14.0879 15.3886 13.7905L13.9744 12.3763C13.6932 12.6575 13.3867 12.9589 13.0944 13.2615L14.5328 14.6511ZM15.384 13.7951C15.4063 13.7731 15.4121 13.7742 15.3962 13.7814C15.3788 13.7893 15.3466 13.7991 15.3044 13.7991C15.2621 13.7991 15.2288 13.7892 15.2096 13.7805C15.1919 13.7724 15.1959 13.77 15.2164 13.7905L16.6306 12.3763C16.2897 12.0354 15.8319 11.7991 15.3044 11.7991C14.7779 11.7991 14.3207 12.0345 13.979 12.3717L15.384 13.7951ZM15.2202 13.7943C15.6865 14.2556 16.1479 14.717 16.6092 15.1833L18.031 13.7767C17.5646 13.3053 17.0982 12.8389 16.6268 12.3725L15.2202 13.7943ZM16.6043 15.1783C16.6366 15.2114 16.6408 15.2255 16.6362 15.2155C16.6307 15.2034 16.6201 15.1729 16.62 15.1294C16.6199 15.0856 16.6304 15.0519 16.6385 15.0343C16.6456 15.0188 16.6454 15.0274 16.618 15.0548L18.0322 16.469C18.374 16.1272 18.6215 15.6658 18.62 15.1237C18.6185 14.5847 18.3711 14.1253 18.0359 13.7817L16.6043 15.1783Z" fill="#161515" mask="url(#path-2-outside-1)" />
</svg>
