<svg width="40" height="18" viewBox="0 0 40 18" fill="none" xmlns="http://www.w3.org/2000/svg">
  <path d="M27.7391 13.3561H12.8146C12.4962 13.3561 12.2383 13.6186 12.2383 13.9425C12.2383 14.2665 12.4962 14.529 12.8146 14.529H27.7391C28.0575 14.529 28.3154 14.2665 28.3154 13.9425C28.3154 13.6186 28.0575 13.3561 27.7391 13.3561Z" fill="#112145" />
  <path d="M39.9882 9.06338C39.8552 8.4063 39.1595 7.59462 35.0062 6.55563C33.1687 6.09608 31.3382 5.76882 30.7986 5.67569C25.0314 0.734569 22.1276 0.0514503 22.0062 0.0244727C21.9663 0.0155583 21.9255 0.0111067 21.8847 0.0111067L11.9367 0.000783354C11.3781 -0.00601969 10.8078 0.0319816 10.25 0.0955549L3.67622 0.843189C2.98099 0.92201 2.4107 1.41652 2.22353 2.10269L1.04284 6.43435C1.02901 6.48526 1.02186 6.53804 1.02186 6.59106V9.70427C0.424605 9.94003 0 10.531 0 11.2211V12.9026C0 13.7992 0.716895 14.5288 1.59815 14.5288H2.79727C3.11561 14.5288 3.37356 14.2663 3.37356 13.9423C3.37356 13.6184 3.11561 13.3559 2.79727 13.3559H1.59815C1.35265 13.3559 1.15257 13.1525 1.15257 12.9026V11.2211C1.15257 10.9713 1.35242 10.7677 1.59815 10.7677C1.91648 10.7677 2.17443 10.5052 2.17443 10.1812V6.67081L3.33391 2.4161C3.39453 2.19418 3.57894 2.03419 3.80393 2.00862L10.3777 1.26098C10.8931 1.20234 11.4233 1.16903 11.9353 1.17349L21.8123 1.18357C22.2108 1.295 24.9597 2.18362 30.1753 6.67504C30.2553 6.74377 30.3521 6.78928 30.4556 6.80617C34.6652 7.49867 38.4752 8.62939 38.8474 9.27662V12.8201C38.8474 13.1154 38.6114 13.3556 38.3212 13.3556H38.1068C37.7885 13.3556 37.5305 13.6181 37.5305 13.9421C37.5305 14.2661 37.7885 14.5286 38.1068 14.5286H38.3212C39.2469 14.5286 40 13.7622 40 12.8201V9.18114C40 9.14173 39.9961 9.10208 39.9882 9.06338Z" fill="#112145" />
  <path d="M7.70575 10.4415C5.65811 10.4415 3.99219 12.1369 3.99219 14.2207C3.99219 16.3046 5.65811 17.9999 7.70575 17.9999C9.7534 17.9999 11.4191 16.3046 11.4191 14.2207C11.4191 12.1369 9.75317 10.4415 7.70575 10.4415ZM7.70575 16.827C6.29363 16.827 5.14475 15.6578 5.14475 14.2207C5.14475 12.7837 6.29363 11.6145 7.70575 11.6145C9.11764 11.6145 10.2665 12.7837 10.2665 14.2207C10.2665 15.6578 9.11764 16.827 7.70575 16.827Z" fill="#112145" />
  <path d="M32.9753 10.4415C30.9276 10.4415 29.2617 12.1369 29.2617 14.2207C29.2617 16.3046 30.9276 17.9999 32.9753 17.9999C35.0229 17.9999 36.6888 16.3046 36.6888 14.2207C36.6888 12.1369 35.0229 10.4415 32.9753 10.4415ZM32.9753 16.827C31.5632 16.827 30.4143 15.6578 30.4143 14.2207C30.4143 12.7837 31.5632 11.6145 32.9753 11.6145C34.3874 11.6145 35.5363 12.7837 35.5363 14.2207C35.5363 15.6578 34.3874 16.827 32.9753 16.827Z" fill="#112145" />
  <path d="M7.70765 12.7017C6.88448 12.7017 6.21484 13.3831 6.21484 14.2209C6.21484 15.0586 6.88448 15.74 7.70765 15.74C8.53081 15.74 9.20045 15.0586 9.20045 14.2209C9.20045 13.3831 8.53058 12.7017 7.70765 12.7017ZM7.70765 14.5671C7.52001 14.5671 7.36741 14.4118 7.36741 14.2209C7.36741 14.0301 7.52001 13.8746 7.70765 13.8746C7.89505 13.8746 8.04789 14.0299 8.04789 14.2209C8.04765 14.4118 7.89505 14.5671 7.70765 14.5671Z" fill="#112145" />
  <path d="M32.9767 12.7101C32.1581 12.7101 31.4922 13.3878 31.4922 14.2208C31.4922 15.0539 32.1581 15.7316 32.9767 15.7316C33.7952 15.7316 34.4612 15.0539 34.4612 14.2208C34.4612 13.3878 33.7952 12.7101 32.9767 12.7101ZM32.9767 14.5586C32.7937 14.5586 32.6448 14.4071 32.6448 14.2208C32.6448 14.0346 32.7937 13.883 32.9767 13.883C33.1597 13.883 33.3086 14.0346 33.3086 14.2208C33.3086 14.4071 33.1597 14.5586 32.9767 14.5586Z" fill="#112145" />
  <path d="M28.1468 6.27722H21.0855V2.90971C21.0855 2.58575 20.8276 2.32324 20.5092 2.32324C20.1909 2.32324 19.933 2.58575 19.933 2.90971V6.27722H13.9684V2.90971C13.9684 2.58575 13.7105 2.32324 13.3921 2.32324C13.0738 2.32324 12.8159 2.58575 12.8159 2.90971V6.27722H7.0867V3.17691C7.0867 2.85294 6.82875 2.59044 6.51041 2.59044C6.19207 2.59044 5.93413 2.85294 5.93413 3.17691V6.27722H3.81456C3.49623 6.27722 3.23828 6.53973 3.23828 6.86369C3.23828 7.18766 3.49623 7.45016 3.81456 7.45016H28.1468C28.4652 7.45016 28.7231 7.18766 28.7231 6.86369C28.7231 6.53973 28.4652 6.27722 28.1468 6.27722Z" fill="#112145" />
  <path d="M20.3928 9.92721C20.7111 9.92721 20.969 9.66471 20.969 9.34074C20.969 9.01678 20.7111 8.75427 20.3928 8.75427H18.3497C18.0314 8.75427 17.7734 9.01678 17.7734 9.34074C17.7734 9.66471 18.0314 9.92721 18.3497 9.92721H20.3928Z" fill="#112145" />
</svg>
