<svg width="32" height="32" viewBox="0 0 32 32" fill="none" xmlns="http://www.w3.org/2000/svg">
  <path d="M31.8399 14.9069H30.3045V7.84431C30.3045 6.15113 28.9271 4.77367 27.2339 4.77367H25.1545L23.0265 0.947643C22.7022 0.362927 22.085 0 21.4156 0C21.1036 0 20.7941 0.0804594 20.5208 0.232109L12.3541 4.77357H3.23178C1.53859 4.77357 0.161133 6.15103 0.161133 7.84422V28.9293C0.161133 30.6224 1.53859 31.9999 3.23178 31.9999H27.2339C28.9271 31.9999 30.3045 30.6224 30.3045 28.9293V22.7369H31.8399V14.9069ZM27.2339 6.00187C28.1796 6.00187 28.9522 6.72037 29.056 7.63972H26.7481L25.8379 6.00187H27.2339ZM21.1183 1.3056C21.4063 1.14411 21.7939 1.25706 21.9529 1.54392L25.3429 7.63915H9.72806L21.1183 1.3056ZM29.0762 28.9293C29.0762 29.945 28.2496 30.7717 27.2338 30.7717H3.23178C2.216 30.7717 1.38933 29.945 1.38933 28.9293V7.84431C1.38933 6.82854 2.216 6.00187 3.23178 6.00187H10.1456L7.20028 7.63982H3.61563C3.27602 7.63982 3.00148 7.91493 3.00148 8.25397C3.00148 8.59301 3.27602 8.86812 3.61563 8.86812H4.99128H27.431H29.0762V14.9074H24.5851C22.4995 14.9074 20.8021 16.6049 20.8021 18.6905V18.9546C20.8021 21.0402 22.4996 22.7376 24.5851 22.7376H29.0762V28.9293ZM30.6116 21.5087H30.3045H24.5851C23.1763 21.5087 22.0303 20.3628 22.0303 18.9539V18.6898C22.0303 17.281 23.1762 16.135 24.5851 16.135H30.3045H30.6116V21.5087ZM26.4662 18.8723C26.4662 19.6216 25.8594 20.2283 25.1102 20.2283C24.361 20.2283 23.7543 19.6215 23.7543 18.8723C23.7543 18.1231 24.3611 17.5164 25.1102 17.5164C25.8595 17.5163 26.4662 18.1236 26.4662 18.8723Z" fill="#161515" />
</svg>
