<svg width="32" height="32" viewBox="0 0 32 32" fill="none" xmlns="http://www.w3.org/2000/svg">
  <path d="M22.8726 12.5995H21.7274C21.4309 12.5995 21.1904 12.8399 21.1904 13.1365C21.1904 13.433 21.4308 13.6734 21.7274 13.6734H22.8726C23.1691 13.6734 23.4095 13.433 23.4095 13.1365C23.4094 12.8399 23.1691 12.5995 22.8726 12.5995Z" fill="black" />
  <path d="M23.0137 17.0353C22.8019 16.7641 22.4831 16.6085 22.1391 16.6085H9.86112C9.51706 16.6085 9.19831 16.7641 8.9865 17.0353C8.77475 17.3065 8.70112 17.6535 8.78462 17.9873L9.071 19.1328C9.19475 19.6276 9.63743 19.9732 10.1475 19.9732H21.8527C22.3628 19.9732 22.8054 19.6276 22.9292 19.1327L23.2156 17.9873C23.2991 17.6534 23.2254 17.3065 23.0137 17.0353ZM22.1738 17.7269L21.8874 18.8723C21.8834 18.8883 21.8692 18.8994 21.8527 18.8994H10.1475C10.1311 18.8994 10.1167 18.8882 10.1127 18.8723L9.82637 17.7269C9.82506 17.7218 9.82212 17.71 9.83287 17.6962C9.84362 17.6825 9.85587 17.6825 9.86106 17.6825H22.1391C22.1443 17.6825 22.1565 17.6825 22.1672 17.6962C22.178 17.71 22.1751 17.7218 22.1738 17.7269Z" fill="black" />
  <path fill-rule="evenodd" clip-rule="evenodd" d="M10 6.2998H7.46731C6.52256 6.2998 5.67088 6.89637 5.34806 7.78418L3.91581 11.7231C3.78713 10.9225 3.0915 10.3087 2.25506 10.3087H1.68237C0.754687 10.3087 0 11.0634 0 11.9911C0 12.9187 0.754687 13.6734 1.68231 13.6734H2.255C2.51944 13.6734 2.76969 13.6119 2.99256 13.5027L1.76506 15.0371C1.36544 15.5366 1.14538 16.1639 1.14538 16.8036V27.4541C1.14538 28.066 1.64313 28.5637 2.255 28.5637H3.97312C4.585 28.5637 5.08275 28.066 5.08275 27.4541V25.1275H26.9172V27.4541C26.9172 28.066 27.4149 28.5637 28.0268 28.5637H29.7449C30.3568 28.5637 30.8546 28.066 30.8546 27.4541V16.8036C30.8546 16.1639 30.6345 15.5366 30.2349 15.0371L29.0074 13.5027C29.2303 13.6119 29.4805 13.6734 29.7449 13.6734H30.3177C31.2453 13.6734 32 12.9187 32 11.9911C32 11.0634 31.2453 10.3087 30.3177 10.3087H29.745C28.9086 10.3087 28.2129 10.9225 28.0842 11.7232L26.6519 7.78424C26.3291 6.8963 25.4774 6.2998 24.5326 6.2998H22V6.30001H10V6.2998ZM1.68237 12.5996H2.25506C2.59056 12.5996 2.86356 12.3266 2.86356 11.9911C2.86356 11.6555 2.59063 11.3826 2.25506 11.3826H1.68237C1.34681 11.3826 1.07387 11.6555 1.07387 11.9911C1.07387 12.3266 1.34681 12.5996 1.68237 12.5996ZM3.97312 27.4899C3.99288 27.4899 4.00894 27.4739 4.00894 27.4541H4.00887V25.1275H3.40037C2.96756 25.1275 2.56294 25.0046 2.21919 24.7924V27.4541C2.21919 27.4739 2.23525 27.4899 2.255 27.4899H3.97312ZM9.66444 24.0537H22.3356H22.3356V22.8725C22.3356 22.8527 22.3196 22.8367 22.2998 22.8367H9.70025C9.6805 22.8367 9.66444 22.8527 9.66444 22.8725V24.0537ZM29.7449 27.4899C29.7647 27.4899 29.7808 27.4739 29.7808 27.4541H29.7807V24.7924C29.4369 25.0046 29.0323 25.1275 28.5995 25.1275H27.991V27.4541C27.991 27.4739 28.0071 27.4899 28.0268 27.4899H29.7449ZM29.7808 16.8036C29.7808 16.4069 29.6442 16.0177 29.3965 15.7079L27.7689 13.6734H25.1634C24.8669 13.6734 24.6265 13.4329 24.6265 13.1364C24.6265 12.8399 24.8669 12.5995 25.1634 12.5995H27.2604L25.6427 8.15106C25.4736 7.68606 25.0276 7.37355 24.5327 7.37355H7.46744C6.97256 7.37355 6.52644 7.68599 6.35738 8.15106L4.73975 12.5995H19.4363C19.7328 12.5995 19.9732 12.8399 19.9732 13.1364C19.9732 13.433 19.7327 13.6734 19.4363 13.6734H4.23119L2.60363 15.7079C2.35575 16.0177 2.21925 16.4069 2.21925 16.8036V22.8725C2.21925 23.5238 2.74913 24.0537 3.40044 24.0537H8.59062V22.8725C8.59062 22.2606 9.08838 21.7629 9.70025 21.7629H22.2997C22.9116 21.7629 23.4094 22.2606 23.4094 22.8725V24.0537H28.5996C29.2509 24.0537 29.7808 23.5238 29.7808 22.8725V16.8036ZM29.7449 11.3826C29.4094 11.3826 29.1364 11.6555 29.1364 11.9911C29.1364 12.3266 29.4094 12.5996 29.7449 12.5996H30.3176C30.6532 12.5996 30.9261 12.3266 30.9261 11.9911C30.9261 11.6555 30.6532 11.3826 30.3176 11.3826H29.7449Z" fill="black" />
  <path d="M5.69166 20.6174C5.07978 20.6174 4.58203 21.1152 4.58203 21.7271C4.58203 22.3389 5.07978 22.8367 5.69166 22.8367C6.30353 22.8367 6.80128 22.3389 6.80128 21.7271C6.80128 21.1152 6.30353 20.6174 5.69166 20.6174Z" fill="black" />
  <path d="M26.3088 20.6174C25.697 20.6174 25.1992 21.1152 25.1992 21.7271C25.1992 22.3389 25.697 22.8367 26.3088 22.8367C26.9207 22.8367 27.4185 22.3389 27.4185 21.7271C27.4185 21.1152 26.9207 20.6174 26.3088 20.6174Z" fill="black" />
  <path d="M5.40423 16.0358C4.31867 16.0358 3.43555 16.919 3.43555 18.0045C3.43555 19.0901 4.31867 19.9732 5.40423 19.9732C6.48979 19.9732 7.37292 19.0901 7.37292 18.0045C7.37292 16.919 6.48979 16.0358 5.40423 16.0358ZM5.40423 18.8993C4.9108 18.8993 4.50936 18.498 4.50936 18.0045C4.50936 17.511 4.91073 17.1096 5.40423 17.1096C5.89773 17.1096 6.29911 17.511 6.29911 18.0045C6.29911 18.498 5.89767 18.8993 5.40423 18.8993Z" fill="black" />
  <path d="M26.5947 16.0358C25.5091 16.0358 24.626 16.919 24.626 18.0045C24.626 19.0901 25.5091 19.9732 26.5947 19.9732C27.6802 19.9732 28.5634 19.0901 28.5634 18.0045C28.5634 16.919 27.6802 16.0358 26.5947 16.0358ZM26.5947 18.8993C26.1012 18.8993 25.6998 18.498 25.6998 18.0045C25.6998 17.511 26.1012 17.1096 26.5947 17.1096C27.0881 17.1096 27.4895 17.511 27.4895 18.0045C27.4895 18.498 27.0882 18.8993 26.5947 18.8993Z" fill="black" />
</svg>
