<svg width="24" height="24" viewBox="0 0 24 24" fill="none" xmlns="http://www.w3.org/2000/svg">
  <path d="M20.4815 3.51759C18.2152 1.25126 15.2051 0 11.9991 0C8.79308 0 5.78303 1.25126 3.5167 3.51759C-0.855159 7.88945 -1.17174 14.8744 2.72273 19.608C2.18504 20.7085 1.55188 21.4422 0.833283 21.794C0.396097 22.0101 0.149866 22.4824 0.220218 22.9648C0.295595 23.4523 0.667454 23.8291 1.15489 23.9045C1.42122 23.9447 1.70765 23.9698 2.00414 23.9698C3.4765 23.9698 5.02424 23.4623 6.31569 22.5729C8.05439 23.5075 10.0092 24 11.9991 24C15.2051 24 18.2152 22.7538 20.4815 20.4874C22.7479 18.2211 23.9941 15.206 23.9941 12.005C23.9941 8.80402 22.7479 5.78392 20.4815 3.51759ZM19.5217 19.5226C17.5117 21.5327 14.8383 22.6382 11.9991 22.6382C10.0996 22.6382 8.23529 22.1307 6.61218 21.1759C6.50665 21.1156 6.38605 21.0804 6.27047 21.0804C6.12474 21.0804 5.97399 21.1307 5.85338 21.2211C4.31569 22.4121 2.76796 22.5879 2.08956 22.603C2.89861 22 3.577 21.0653 4.14484 19.7638C4.25037 19.5226 4.20514 19.2412 4.02926 19.0402C0.31067 14.8392 0.50665 8.43719 4.4765 4.46734C6.48655 2.45729 9.15992 1.35176 11.9991 1.35176C14.8383 1.35176 17.5117 2.45729 19.5217 4.46734C23.6725 8.62312 23.6725 15.3769 19.5217 19.5226Z" fill="#112145" />
  <path d="M17.0236 8.04022H6.97331C6.59643 8.04022 6.29492 8.34173 6.29492 8.71861C6.29492 9.0955 6.59643 9.39701 6.97331 9.39701H17.0236C17.4005 9.39701 17.702 9.0955 17.702 8.71861C17.702 8.34173 17.3954 8.04022 17.0236 8.04022Z" fill="#112145" />
  <path d="M17.0236 11.3216H6.97331C6.59643 11.3216 6.29492 11.6231 6.29492 12C6.29492 12.3769 6.59643 12.6784 6.97331 12.6784H17.0236C17.4005 12.6784 17.702 12.3769 17.702 12C17.702 11.6231 17.3954 11.3216 17.0236 11.3216Z" fill="#112145" />
  <path d="M17.0236 14.603H6.97331C6.59643 14.603 6.29492 14.9045 6.29492 15.2814C6.29492 15.6583 6.59643 15.9598 6.97331 15.9598H17.0236C17.4005 15.9598 17.702 15.6583 17.702 15.2814C17.702 14.9045 17.3954 14.603 17.0236 14.603Z" fill="#112145" />
</svg>
