<svg width="23" height="20" viewBox="0 0 23 20" fill="none" xmlns="http://www.w3.org/2000/svg">
  <path d="M11.0735 3.23984L11.4999 3.93624L11.9263 3.23987C12.9331 1.59583 14.7319 0.5 16.7888 0.5C19.9412 0.5 22.5 3.06572 22.5 6.23482C22.5 7.95889 21.7396 9.5012 20.5386 10.5529L20.5257 10.5641L20.5137 10.5761L11.7125 19.4115C11.6558 19.4684 11.5793 19.5 11.4999 19.5C11.4205 19.5 11.3441 19.4684 11.2874 19.4115L2.48615 10.5761L2.47413 10.5641L2.46131 10.5529C1.26037 9.50121 0.5 7.95891 0.5 6.23482C0.5 3.06564 3.05807 0.5 6.21037 0.5C8.26732 0.5 10.067 1.5959 11.0735 3.23984Z" stroke="white" />
</svg>
