<svg width="40" height="16" viewBox="0 0 40 16" fill="none" xmlns="http://www.w3.org/2000/svg">
  <path d="M8.48972 10.7443C7.64451 10.7443 6.95703 11.4177 6.95703 12.2455C6.95703 13.0734 7.64451 13.7468 8.48972 13.7468C9.33493 13.7468 10.0226 13.0734 10.0226 12.2455C10.0226 11.4177 9.33493 10.7443 8.48972 10.7443ZM8.48972 12.5784C8.30263 12.5784 8.15016 12.429 8.15016 12.2458C8.15016 12.0625 8.30263 11.9132 8.48972 11.9132C8.67704 11.9132 8.82952 12.0625 8.82952 12.2458C8.82952 12.429 8.67704 12.5784 8.48972 12.5784Z" fill="#112145" />
  <path d="M30.8496 10.7555C30.0106 10.7555 29.3281 11.424 29.3281 12.2458C29.3281 13.0676 30.0106 13.7361 30.8496 13.7361C31.6886 13.7361 32.3711 13.0676 32.3711 12.2458C32.3711 11.424 31.6884 10.7555 30.8496 10.7555ZM30.8496 12.5674C30.6685 12.5674 30.5213 12.4232 30.5213 12.2458C30.5213 12.0684 30.6685 11.9242 30.8496 11.9242C31.0307 11.9242 31.178 12.0684 31.178 12.2458C31.178 12.4232 31.0305 12.5674 30.8496 12.5674Z" fill="#112145" />
  <path d="M8.48906 8.49146C6.37579 8.49146 4.65625 10.1755 4.65625 12.2457C4.65625 14.3159 6.37555 16 8.48906 16C10.6026 16 12.3219 14.3159 12.3219 12.2457C12.3219 10.1755 10.6026 8.49146 8.48906 8.49146ZM8.48906 14.8311C7.03344 14.8311 5.84938 13.6713 5.84938 12.2455C5.84938 10.8197 7.03344 9.6599 8.48906 9.6599C9.94467 9.6599 11.1287 10.8197 11.1287 12.2455C11.1287 13.6713 9.94467 14.8311 8.48906 14.8311Z" fill="#112145" />
  <path d="M30.8484 8.49146C28.7352 8.49146 27.0156 10.1755 27.0156 12.2457C27.0156 14.3159 28.7349 16 30.8484 16C32.9619 16 34.6812 14.3159 34.6812 12.2457C34.6812 10.1755 32.9617 8.49146 30.8484 8.49146ZM30.8484 14.8311C29.3928 14.8311 28.2088 13.6713 28.2088 12.2455C28.2088 10.8197 29.3928 9.6599 30.8484 9.6599C32.304 9.6599 33.4881 10.8197 33.4881 12.2455C33.4881 13.6713 32.3038 14.8311 30.8484 14.8311Z" fill="#112145" />
  <path d="M39.7619 10.1395L38.2877 6.68773C38.2383 6.57203 38.1522 6.47503 38.0422 6.41099C36.3551 5.42836 29.8196 4.71804 28.4957 4.58247C27.7271 4.02501 23.8897 1.27231 21.4188 0.0620218C21.1236 -0.0826607 20.7659 0.0344365 20.6184 0.323334C20.4712 0.611998 20.5905 0.96307 20.8852 1.10728C22.5391 1.91741 24.9103 3.50448 26.4318 4.56283H16.4224L15.9211 2.21403C15.8536 1.89802 15.5381 1.6956 15.215 1.76151C14.8924 1.82766 14.6857 2.13712 14.753 2.45314L15.2033 4.56283H8.3149L8.10444 2.99354C8.06149 2.67355 7.76273 2.44846 7.43533 2.4903C7.10865 2.53237 6.87861 2.82571 6.92157 3.1457L7.11152 4.56283H2.23688C1.30314 4.56283 0.543345 5.30705 0.543345 6.22166V7.13861L0.084955 7.88703C0.0293552 7.97795 0 8.08173 0 8.18761V11.7364C0 11.9912 0.168468 12.2165 0.4164 12.2934L2.91362 13.0687C3.22694 13.1662 3.56316 12.996 3.66243 12.6882C3.76217 12.3806 3.58797 12.0522 3.27393 11.9545L1.19313 11.3085V8.34936L1.65153 7.60094C1.70713 7.51001 1.73647 7.40623 1.73647 7.30035V6.22143C1.73647 5.95123 1.96079 5.73128 2.23688 5.73128H28.2411C30.3059 5.93743 35.707 6.60382 37.2692 7.33074L38.6678 10.6058C38.6728 10.6171 38.6779 10.6283 38.6833 10.6393C38.8893 11.0476 38.8358 11.542 38.5464 11.8989L38.1889 12.3399H36.3515C36.0219 12.3399 35.7549 12.6015 35.7549 12.9243C35.7549 13.2471 36.0219 13.5086 36.3515 13.5086H38.4769C38.659 13.5086 38.8308 13.4273 38.9441 13.2877L39.4808 12.6256C40.0519 11.922 40.1614 10.948 39.7619 10.1395Z" fill="#112145" />
  <path d="M25.4131 12.3406H14.1591C13.8295 12.3406 13.5625 12.6021 13.5625 12.9249C13.5625 13.2477 13.8295 13.5093 14.1591 13.5093H25.4131C25.7427 13.5093 26.0097 13.2477 26.0097 12.9249C26.0097 12.6021 25.7427 12.3406 25.4131 12.3406Z" fill="#112145" />
  <path d="M20.7345 8.0864C21.0641 8.0864 21.3311 7.82485 21.3311 7.50206C21.3311 7.17928 21.0641 6.91772 20.7345 6.91772H18.2841C17.9545 6.91772 17.6875 7.17928 17.6875 7.50206C17.6875 7.82485 17.9545 8.0864 18.2841 8.0864H20.7345Z" fill="#112145" />
</svg>
