<svg width="40" height="14" viewBox="0 0 40 14" fill="none" xmlns="http://www.w3.org/2000/svg">
  <path d="M9.48533 8.91321C8.66837 8.91321 8.00391 9.5575 8.00391 10.3492C8.00391 11.1408 8.6686 11.7851 9.48533 11.7851C10.3023 11.7851 10.967 11.1408 10.967 10.3492C10.967 9.5575 10.3023 8.91321 9.48533 8.91321ZM9.48533 10.6853C9.29403 10.6853 9.13858 10.5344 9.13858 10.3492C9.13858 10.1639 9.29425 10.013 9.48533 10.013C9.67641 10.013 9.83231 10.1639 9.83231 10.3492C9.83231 10.5344 9.67664 10.6853 9.48533 10.6853Z" fill="#112145" />
  <path d="M32.0725 8.88184C31.2378 8.88184 30.5586 9.53998 30.5586 10.3492C30.5586 11.1585 31.2378 11.8166 32.0725 11.8166C32.9071 11.8166 33.5861 11.1585 33.5861 10.3492C33.5861 9.53998 32.9071 8.88184 32.0725 8.88184ZM32.0725 10.7168C31.8635 10.7168 31.6933 10.5518 31.6933 10.3492C31.6933 10.1467 31.8635 9.98167 32.0725 9.98167C32.2815 9.98167 32.4515 10.1467 32.4515 10.3492C32.4515 10.5518 32.2815 10.7168 32.0725 10.7168Z" fill="#112145" />
  <path d="M26.6745 10.8485H14.5517C14.2383 10.8485 13.9844 11.0947 13.9844 11.3984C13.9844 11.7022 14.2383 11.9483 14.5517 11.9483H26.6745C26.9879 11.9483 27.2419 11.7022 27.2419 11.3984C27.2419 11.0947 26.9879 10.8485 26.6745 10.8485Z" fill="#112145" />
  <path d="M32.0709 6.69861C29.9942 6.69861 28.3047 8.33605 28.3047 10.3492C28.3047 12.3623 29.9942 14 32.0709 14C34.1476 14 35.8371 12.3623 35.8371 10.3492C35.8371 8.33605 34.1476 6.69861 32.0709 6.69861ZM32.0709 12.9001C30.6199 12.9001 29.4394 11.7559 29.4394 10.3492C29.4394 8.94271 30.6199 7.79844 32.0709 7.79844C33.5219 7.79844 34.7024 8.94271 34.7024 10.3492C34.7022 11.7559 33.5219 12.9001 32.0709 12.9001Z" fill="#112145" />
  <path d="M9.48495 6.69861C7.40827 6.69861 5.71875 8.33605 5.71875 10.3492C5.71875 12.3623 7.40827 14 9.48495 14C11.5616 14 13.2511 12.3623 13.2511 10.3492C13.2511 8.33605 11.5616 6.69861 9.48495 6.69861ZM9.48495 12.9001C8.03393 12.9001 6.85342 11.7559 6.85342 10.3492C6.85342 8.94271 8.03393 7.79844 9.48495 7.79844C10.936 7.79844 12.1165 8.94271 12.1165 10.3492C12.1165 11.7559 10.936 12.9001 9.48495 12.9001Z" fill="#112145" />
  <path d="M39.9097 7.59521C39.7885 7.41286 36.8699 3.13626 30.2884 3.30102C30.2298 3.30102 29.3284 3.30673 28.1019 3.58499C28.0671 3.50646 28.0152 3.43366 27.9421 3.37603C27.7944 3.25901 24.2574 0.503688 18.5504 0.0419774C14.5217 -0.283134 10.9032 1.3708 9.89064 1.88575C9.67982 1.99287 9.45629 2.09384 9.22572 2.18623L6.56333 3.25306L0.609269 2.82478C0.390505 2.80872 0.181045 2.91762 0.0730248 3.10327C-0.0349958 3.28914 -0.0222878 3.51856 0.105249 3.69234L1.83086 6.04137L1.249 7.78219C0.932196 8.54504 1.00005 9.41632 1.43213 10.1171L2.36279 11.6277C2.46514 11.7937 2.65031 11.8956 2.84979 11.8956H4.5232C4.83659 11.8956 5.09053 11.6494 5.09053 11.3456C5.09053 11.0419 4.83659 10.7957 4.5232 10.7957H3.17181L2.40568 9.55248C2.15242 9.14158 2.11543 8.62862 2.30628 8.17989C2.31196 8.16669 2.31695 8.15328 2.32149 8.13964L2.99775 6.1166C3.05312 5.95096 3.0243 5.76993 2.92014 5.62805L1.72987 4.00799L6.61326 4.35928C6.70131 4.36565 6.79027 4.3518 6.87196 4.31902L9.65871 3.20247C9.92105 3.09733 10.1761 2.98207 10.4174 2.85933C11.3614 2.37914 14.732 0.837163 18.4556 1.13764C22.7546 1.48563 25.7917 3.25835 26.8301 3.94992C26.4661 4.07663 26.0924 4.2262 25.7156 4.40767C24.5347 4.97695 23.257 5.26554 21.9181 5.26554H18.963L18.2933 2.60856C18.2189 2.3138 17.9123 2.13321 17.6075 2.20492C17.3032 2.27707 17.1167 2.57469 17.1911 2.86966L17.7945 5.26378C15.5411 5.24618 14.0628 4.91404 12.4064 3.29882C12.1854 3.08347 11.8262 3.08259 11.604 3.2964C11.3818 3.51065 11.3807 3.85885 11.6017 4.07419C13.5667 5.99033 15.433 6.36516 17.9924 6.36516H18.5146C18.5155 6.36516 18.5164 6.36537 18.5173 6.36537C18.5178 6.36537 18.5184 6.36516 18.5191 6.36516H21.9184C23.413 6.36516 24.901 6.02883 26.2213 5.39202C28.2435 4.41713 30.2688 4.40019 30.3038 4.39997C35.7055 4.25413 38.352 7.38097 38.8653 8.06419V10.7946H37.3276C37.0142 10.7946 36.7603 11.0408 36.7603 11.3445C36.7603 11.6483 37.0142 11.8945 37.3276 11.8945H39.4327C39.7461 11.8945 40 11.6483 40 11.3445V7.89217C39.9998 7.78725 39.9687 7.68386 39.9097 7.59521Z" fill="#112145" />
</svg>
