<svg width="24" height="24" viewBox="0 0 24 24" fill="none" xmlns="http://www.w3.org/2000/svg">
  <g clip-path="url(#clip0)">
    <path d="M8.17025 9.78528C8.17025 9.45828 7.9027 9.19073 7.5757 9.19073H2.80939C2.48239 9.19073 2.21484 9.45828 2.21484 9.78528C2.21484 10.1123 2.48239 10.3798 2.80939 10.3798H7.5757C7.9027 10.3798 8.17025 10.1123 8.17025 9.78528Z" fill="#112145" />
    <path d="M21.1909 9.19073H16.4246C16.0976 9.19073 15.8301 9.45828 15.8301 9.78528C15.8301 10.1123 16.0976 10.3798 16.4246 10.3798H21.1909C21.5179 10.3798 21.7855 10.1123 21.7855 9.78528C21.7855 9.45828 21.5229 9.19073 21.1909 9.19073Z" fill="#112145" />
    <path d="M11.9988 5.95541C12.3258 5.95541 12.5934 5.68786 12.5934 5.36086V0.59455C12.5934 0.267547 12.3258 0 11.9988 0C11.6718 0 11.4043 0.267547 11.4043 0.59455V5.36086C11.4043 5.68786 11.6718 5.95541 11.9988 5.95541Z" fill="#112145" />
    <path d="M15.127 7.25349C15.2806 7.25349 15.4293 7.19404 15.5482 7.08008L18.9222 3.70601C19.1551 3.47315 19.1551 3.0966 18.9222 2.86374C18.6894 2.63087 18.3128 2.63087 18.08 2.86374L14.7059 6.23781C14.473 6.47067 14.473 6.84722 14.7059 7.08008C14.8248 7.19404 14.9784 7.25349 15.127 7.25349Z" fill="#112145" />
    <path d="M8.45302 7.08008C8.56697 7.19404 8.72056 7.25349 8.87416 7.25349C9.02775 7.25349 9.17639 7.19404 9.2953 7.08008C9.52816 6.84722 9.52816 6.47067 9.2953 6.23781L5.92122 2.86374C5.68836 2.63087 5.31181 2.63087 5.07895 2.86374C4.84608 3.0966 4.84608 3.47315 5.07895 3.70601L8.45302 7.08008Z" fill="#112145" />
    <path d="M19.1455 13.5359C18.6946 13.1495 18.1249 12.9364 17.5452 12.9364H17.0051H15.0629H14.1414V10.5334C14.1414 9.38397 13.7995 8.54665 13.1207 8.04623C12.0505 7.26341 10.5989 7.70437 10.5344 7.72418C10.2867 7.80346 10.1183 8.03137 10.1183 8.28901V11.1874C10.1183 12.0694 9.69712 12.8175 8.85979 13.417C8.22561 13.8728 7.57656 14.0809 7.49233 14.1057L7.43287 14.1205C7.20992 13.8679 6.88291 13.7093 6.51627 13.7093H4.25699C3.58316 13.7093 3.0332 14.2593 3.0332 14.9331V22.3452C3.0332 23.019 3.58316 23.5689 4.25699 23.5689H6.52618C6.82346 23.5689 7.10092 23.4599 7.30901 23.2816C7.76483 23.7275 8.38415 24 9.05302 24H11.3074H11.5402H16.1529C16.8664 24 17.4956 23.8266 17.9762 23.5045C18.5906 23.0883 18.9721 22.4294 19.0811 21.5871L19.9977 15.8893C20.1414 15.0074 19.8144 14.1057 19.1455 13.5359ZM6.56087 22.3452C6.56087 22.365 6.546 22.3798 6.52618 22.3798H4.25699C4.23717 22.3798 4.2223 22.365 4.2223 22.3452V14.9331C4.2223 14.9133 4.23717 14.8984 4.25699 14.8984H6.52618C6.546 14.8984 6.56087 14.9133 6.56087 14.9331V22.3452ZM18.8235 15.706L17.9069 21.4137C17.9069 21.4186 17.9069 21.4286 17.9019 21.4385C17.8623 21.7803 17.7334 22.8158 16.1529 22.8158H11.5402H11.3074H9.05302C8.41883 22.8158 7.86392 22.3402 7.76483 21.711C7.75988 21.6862 7.75492 21.6614 7.74997 21.6416V15.27L7.78465 15.2601C7.79456 15.2601 7.79951 15.2551 7.80942 15.2551C7.8441 15.2452 8.68638 15.0074 9.52371 14.4079C10.688 13.5805 11.3074 12.4657 11.3074 11.1874V8.77951C11.6344 8.74483 12.0852 8.75969 12.4172 9.00247C12.7739 9.26506 12.9523 9.78034 12.9523 10.5285V13.526C12.9523 13.853 13.2198 14.1205 13.5468 14.1205H15.0629H17.0051H17.5452C17.8425 14.1205 18.1348 14.2345 18.3726 14.4327C18.7293 14.7399 18.8978 15.2254 18.8235 15.706Z" fill="#112145" />
  </g>
  <defs>
    <clipPath id="clip0">
      <rect width="24" height="24" fill="white" />
    </clipPath>
  </defs>
</svg>
