<svg width="192" height="31" viewBox="0 0 192 31" fill="none" xmlns="http://www.w3.org/2000/svg">
<path d="M74.4712 11.7917C75.0514 11.7917 75.5321 11.7625 75.9122 11.7039C76.2923 11.6447 76.5922 11.5114 76.8119 11.3021C77.1597 10.9759 77.3337 10.4733 77.3337 9.79401C77.3337 9.44148 77.2918 9.14402 77.208 8.90278C77.1242 8.66128 76.9915 8.45556 76.8119 8.28587C76.5922 8.07658 76.2923 7.93973 75.9122 7.87418C75.5321 7.80914 75.051 7.77631 74.4712 7.77631H71.4729C70.893 7.77631 70.4124 7.80914 70.0322 7.87418C69.6516 7.93973 69.3522 8.07658 69.1326 8.28587C68.952 8.45556 68.8199 8.66128 68.7365 8.90278C68.6526 9.14351 68.6107 9.44148 68.6107 9.79401C68.6107 10.4733 68.7847 10.9759 69.1326 11.3021C69.3522 11.5114 69.6516 11.6447 70.0322 11.7039C70.4124 11.7625 70.893 11.7917 71.4729 11.7917H74.4712ZM70.9318 14.2207C69.8876 14.2207 69.0004 14.1192 68.272 13.9168C67.5437 13.7148 66.9404 13.3781 66.4632 12.9082C66.0898 12.5301 65.7988 12.0756 65.5932 11.547C65.3871 11.0182 65.2837 10.4205 65.2837 9.75453C65.2837 9.1016 65.3903 8.51383 65.6027 7.99161C65.8156 7.46964 66.1086 7.01885 66.4827 6.64C66.96 6.17004 67.5628 5.83731 68.2917 5.6413C69.02 5.44568 69.906 5.3478 70.9509 5.3478H74.9935C76.0381 5.3478 76.9248 5.44529 77.6532 5.6413C78.3811 5.83731 78.9848 6.17004 79.4616 6.64C79.8353 7.01885 80.1292 7.46964 80.3413 7.99161C80.5537 8.51383 80.6607 9.1016 80.6607 9.75453C80.6607 10.4205 80.5569 11.0182 80.3513 11.547C80.1448 12.0752 79.8541 12.5301 79.4807 12.9082C79.0036 13.3781 78.4003 13.7148 77.6723 13.9168C76.944 14.1192 76.0568 14.2207 75.0127 14.2207H70.9318ZM82.5733 5.3478H91.4905C92.5351 5.3478 93.422 5.44925 94.1498 5.65088C94.8777 5.85328 95.4811 6.18997 95.9583 6.65993C96.3321 7.0384 96.6227 7.4929 96.8287 8.02112C97.0343 8.54973 97.1378 9.14759 97.1378 9.81318C97.1378 10.4665 97.0316 11.0539 96.8188 11.5765C96.6059 12.0987 96.3129 12.5492 95.9388 12.9281C95.4619 13.3981 94.8582 13.7312 94.1306 13.9268C93.4019 14.122 92.5155 14.2207 91.471 14.2207C89.5947 14.2207 87.7183 14.2207 85.8424 14.2207C85.8424 15.8134 85.8424 17.4066 85.8424 18.9999H82.5733V5.3478ZM85.8424 7.75676V11.8113H90.9482C91.5288 11.8113 92.0091 11.7781 92.3898 11.7131C92.7694 11.6483 93.0697 11.5114 93.2889 11.3021C93.6371 10.9759 93.8117 10.4665 93.8117 9.77408C93.8117 9.09521 93.6371 8.58615 93.2889 8.24639C93.0697 8.03748 92.7694 7.90331 92.3898 7.84505C92.0091 7.78678 91.5281 7.75676 90.9482 7.75676H85.8424ZM111.952 14.2207H104.119C103.075 14.2207 102.187 14.1185 101.459 13.9168C100.731 13.7156 100.127 13.3781 99.6505 12.9082C99.276 12.5301 98.9861 12.0748 98.7805 11.547C98.5749 11.0186 98.4706 10.4205 98.4706 9.75453C98.4706 9.1016 98.5777 8.51344 98.7897 7.99161C99.0017 7.47015 99.2956 7.01885 99.6702 6.64C100.147 6.17004 100.751 5.83692 101.479 5.6413C102.207 5.44606 103.093 5.3478 104.138 5.3478H111.952C111.952 6.29615 111.952 7.19186 111.952 8.14008C111.053 7.88939 110.556 7.5895 104.66 7.75676C104.082 7.77324 103.598 7.79036 103.219 7.85463C102.839 7.9189 102.539 8.05741 102.32 8.26594C101.972 8.6057 101.798 9.11476 101.798 9.79401C101.798 10.486 101.972 10.9951 102.32 11.3217C102.539 11.5306 102.839 11.6655 103.219 11.7234C103.598 11.7809 104.081 11.8033 104.66 11.8113C109.957 11.8871 110.357 11.8944 111.952 11.4902V14.2207ZM114.329 14.2207V0H131.418L128.855 2.82065H117.869V14.2207H114.329ZM127.925 5.3478H136.841C137.886 5.3478 138.774 5.45002 139.501 5.65088C140.228 5.85213 140.836 6.18831 141.309 6.65993C141.684 7.03406 141.974 7.49367 142.18 8.02112C142.385 8.54935 142.489 9.14759 142.489 9.81318C142.489 10.4665 142.381 11.0554 142.17 11.5765C141.959 12.0976 141.665 12.5532 141.29 12.9281C140.817 13.3997 140.21 13.7312 139.482 13.9268C138.753 14.1228 137.863 14.2207 136.821 14.2207H131.193V18.9999H127.925V5.3478ZM131.193 7.75676V11.8113H136.3C136.88 11.8113 137.362 11.777 137.741 11.7131C138.119 11.6492 138.421 11.5086 138.64 11.3021C138.986 10.9759 139.162 10.4665 139.162 9.77408C139.162 9.09521 138.989 8.58449 138.64 8.24639C138.423 8.03633 138.121 7.90331 137.741 7.84505C137.361 7.78678 136.877 7.75676 136.3 7.75676H131.193ZM157.71 14.3772C157.71 15.2097 157.618 15.897 157.439 16.4244C157.26 16.9515 156.975 17.391 156.607 17.7465C156.14 18.1977 155.558 18.5283 154.857 18.716C154.155 18.9037 153.25 18.9999 152.158 18.9999H146.576L144.218 16.5905H151.733C152.313 16.5905 152.788 16.5537 153.154 16.4827C153.52 16.4124 153.813 16.2399 154.034 15.9832C154.171 15.825 154.281 15.6262 154.344 15.3862C154.407 15.1458 154.441 14.8344 154.441 14.4554V14.2207H149.47C148.287 14.2207 147.35 14.1245 146.674 13.9368C145.999 13.7491 145.474 13.4524 145.098 13.0655C144.767 12.7244 144.53 12.3123 144.402 11.8309C144.275 11.3493 144.208 10.7016 144.208 9.89189V5.3478C145.298 5.3478 146.587 5.34857 147.676 5.34857C147.259 6.09771 147.31 7.73963 147.354 9.62675C147.365 10.08 147.39 10.4477 147.46 10.714C147.529 10.9795 147.644 11.1939 147.798 11.3504C147.991 11.5457 148.265 11.6755 148.611 11.7326C148.957 11.7897 149.417 11.8204 149.985 11.8204C151.429 11.8204 152.997 11.7917 154.441 11.7917C154.448 8.7207 154.551 5.71682 154.067 5.3478H157.71V14.3772ZM174.516 5.3478V14.2207H171.247V7.75676H163.471V14.2207H160.203V5.3478H174.516ZM191.322 5.3478V14.2207H188.053V7.75676H180.278V14.2207H177.009V5.3478H191.322Z" fill=""/>
<path fill-rule="evenodd" clip-rule="evenodd" d="M0 0.375092H8.83608L0 9.19443V0.375092ZM18.0814 0.375092H23.0324L15.8386 7.56887C15.2589 8.14859 14.8212 8.59619 14.5217 8.91448C14.2183 9.23788 13.8393 9.67512 13.3725 10.2302C11.2011 12.8539 11.1109 15.2185 13.601 17.7075L25.0041 29.1106L25.0991 29.2049H19.3509L4.30719 14.1341L18.0814 0.375092ZM31.9779 0.375092H36.9383V0.388252L29.1748 8.1514L33.4569 12.3787L36.8398 8.99587L36.9383 9.09451V16.9412L30.8043 23.0752C30.6023 23.2772 30.4474 23.4315 30.34 23.53C29.6237 24.1853 28.9752 24.321 28.2388 23.5851L19.5166 14.8628C18.7866 14.1325 18.995 13.3355 19.5773 12.7853C19.6835 12.685 19.8308 12.5221 20.0409 12.312L31.9779 0.375092ZM36.9383 25.0481V29.2049H32.6076C32.9857 28.895 33.3004 28.6271 33.55 28.3979C33.9165 28.06 34.4412 27.5453 35.1284 26.8582L36.9383 25.0481ZM9.66023 29.2049H0V19.4787L9.66023 29.2049Z" fill=""/>
<path d="M50.8784 28.277C50.8784 28.5162 50.9981 28.636 51.2373 28.636C51.3406 28.636 51.4601 28.6133 51.5958 28.568V29.1986C51.4021 29.2697 51.2081 29.3052 51.0141 29.3052C50.568 29.3052 50.2833 29.1176 50.1604 28.7426C49.6628 29.1563 49.0583 29.3635 48.3471 29.3635C47.8943 29.3635 47.5081 29.2417 47.1879 28.9997C46.8681 28.757 46.708 28.4064 46.708 27.9472C46.708 27.3978 46.9132 26.9985 47.3238 26.7497C47.7342 26.5005 48.2306 26.3759 48.8127 26.3759C49.2391 26.3759 49.6692 26.4246 50.1025 26.5217V26.3568C50.1025 26.001 49.9858 25.7179 49.753 25.5083C49.5202 25.2979 49.194 25.1929 48.7736 25.1929C48.1854 25.1929 47.6196 25.309 47.0761 25.5422V24.7855C47.6843 24.5788 48.2761 24.4749 48.8511 24.4749C49.4847 24.4749 49.9811 24.645 50.34 24.9845C50.699 25.3238 50.8784 25.8133 50.8784 26.4539V28.277ZM47.503 27.9085C47.503 28.1672 47.6017 28.3625 47.7988 28.4951C47.9961 28.628 48.2338 28.6939 48.5117 28.6939C49.1521 28.6939 49.682 28.4679 50.1025 28.015V27.1617C49.6628 27.0712 49.2684 27.0257 48.9193 27.0257C48.5249 27.0257 48.1902 27.0954 47.9155 27.2345C47.6404 27.3733 47.503 27.5982 47.503 27.9085ZM56.6118 29.2469H53.9837V24.5915H56.5344C56.9549 24.5915 57.2991 24.7013 57.5674 24.9213C57.8352 25.1408 57.9694 25.4516 57.9694 25.8524C57.9694 26.0852 57.9115 26.2953 57.7954 26.4826C57.6787 26.6702 57.5299 26.8028 57.3489 26.8803C57.5622 26.9517 57.7435 27.0807 57.8924 27.2684C58.041 27.4556 58.1152 27.6852 58.1152 27.9572C58.1152 28.3513 57.9874 28.6648 57.7322 28.8976C57.4767 29.1303 57.1033 29.2469 56.6118 29.2469ZM54.7595 27.2296V28.568H56.5052C57.0614 28.568 57.3393 28.3481 57.3393 27.9085C57.3393 27.4556 57.071 27.2296 56.5344 27.2296H54.7595ZM54.7595 25.2703V26.5604H56.4565C56.9417 26.5604 57.184 26.35 57.184 25.93C57.184 25.6908 57.1129 25.5211 56.9708 25.4208C56.8286 25.3206 56.657 25.2703 56.4565 25.2703H54.7595ZM62.7239 29.2469H61.9481V25.309H60.2314V24.5915H64.4309V25.309H62.7239V29.2469ZM67.129 28.7086C66.6375 28.2722 66.3919 27.6757 66.3919 26.919C66.3919 26.1627 66.6375 25.5662 67.129 25.1297C67.6201 24.6932 68.2023 24.4749 68.8747 24.4749C69.5536 24.4749 70.1372 24.6932 70.6252 25.1297C71.1136 25.5662 71.3575 26.1627 71.3575 26.919C71.3575 27.6757 71.1136 28.2722 70.6252 28.7086C70.1372 29.1451 69.5536 29.3635 68.8747 29.3635C68.2023 29.3635 67.6201 29.1451 67.129 28.7086ZM70.097 28.1656C70.42 27.8585 70.5818 27.4429 70.5818 26.919C70.5818 26.3955 70.42 25.9802 70.097 25.6728C69.7736 25.3657 69.3662 25.2124 68.8747 25.2124C68.3831 25.2124 67.9759 25.3657 67.6529 25.6728C67.3294 25.9802 67.1677 26.3955 67.1677 26.919C67.1677 27.4429 67.3294 27.8585 67.6529 28.1656C67.9759 28.4726 68.3831 28.6261 68.8747 28.6261C69.3662 28.6261 69.7736 28.4726 70.097 28.1656ZM74.764 29.2469H74.0265V24.5915H74.8702L76.5677 27.1713L78.265 24.5915H79.1087V29.2469H78.3716V25.7359L76.8587 28.0342H76.2765L74.764 25.7359V29.2469ZM82.5147 28.7086C82.0232 28.2722 81.7776 27.6757 81.7776 26.919C81.7776 26.1627 82.0232 25.5662 82.5147 25.1297C83.0059 24.6932 83.5881 24.4749 84.2605 24.4749C84.9393 24.4749 85.5227 24.6932 86.0115 25.1297C86.4994 25.5662 86.7434 26.1627 86.7434 26.919C86.7434 27.6757 86.4994 28.2722 86.0115 28.7086C85.5227 29.1451 84.9393 29.3635 84.2605 29.3635C83.5881 29.3635 83.0059 29.1451 82.5147 28.7086ZM85.4827 28.1656C85.8059 27.8585 85.9675 27.4429 85.9675 26.919C85.9675 26.3955 85.8059 25.9802 85.4827 25.6728C85.1593 25.3657 84.7521 25.2124 84.2605 25.2124C83.7694 25.2124 83.3616 25.3657 83.0386 25.6728C82.7152 25.9802 82.5535 26.3955 82.5535 26.919C82.5535 27.4429 82.7152 27.8585 83.0386 28.1656C83.3616 28.4726 83.7694 28.6261 84.2605 28.6261C84.7521 28.6261 85.1593 28.4726 85.4827 28.1656ZM93.9611 27.0552C93.9611 27.7726 93.743 28.3369 93.3062 28.7474C92.8698 29.1579 92.296 29.3635 91.5849 29.3635C90.8609 29.3635 90.2771 29.1239 89.8344 28.6456C89.3915 28.1672 89.1699 27.4979 89.1699 26.6379C89.1699 25.888 89.2993 25.2412 89.558 24.6981C89.8164 24.1551 90.1657 23.7478 90.6054 23.4762C90.9028 23.295 91.2115 23.1513 91.5314 23.0446C91.8516 22.938 92.1167 22.8717 92.3268 22.8457C92.5372 22.8198 92.7552 22.7663 92.9816 22.6856C93.2077 22.605 93.3952 22.49 93.5438 22.3414V23.156C93.3629 23.2854 93.1397 23.3809 92.8751 23.4423C92.6099 23.5034 92.3155 23.5765 91.9921 23.6603C91.6687 23.7445 91.3585 23.874 91.0614 24.0485C90.7703 24.2229 90.5439 24.4429 90.3822 24.7077C90.2209 24.9732 90.0783 25.2898 89.9558 25.6585C90.1234 25.3997 90.363 25.1897 90.6732 25.0279C90.9835 24.8663 91.3166 24.7855 91.6723 24.7855C92.2992 24.7855 92.8375 24.9956 93.287 25.4161C93.7363 25.8365 93.9611 26.3823 93.9611 27.0552ZM89.9458 27.0743C89.9458 27.5204 90.0947 27.8905 90.3921 28.1848C90.6892 28.4791 91.0806 28.6261 91.5657 28.6261C92.0632 28.6261 92.4577 28.4807 92.7488 28.1896C93.0399 27.8989 93.1853 27.5272 93.1853 27.0743C93.1853 26.6219 93.0399 26.2498 92.7488 25.9591C92.4577 25.668 92.0632 25.5226 91.5657 25.5226C91.1001 25.5226 90.7136 25.6792 90.4066 25.993C90.0995 26.3064 89.9458 26.667 89.9458 27.0743ZM97.2992 29.2469H96.6396V24.5915H97.4158V27.9955L100.267 24.5915H100.926V29.2469H100.151V25.8425L97.2992 29.2469ZM105.564 25.309C105.532 25.8197 105.493 26.2662 105.448 26.6475C105.403 27.0292 105.338 27.3962 105.254 27.7484C105.17 28.1009 105.068 28.3869 104.949 28.6068C104.829 28.8264 104.679 29.0013 104.497 29.1303C104.316 29.2601 104.11 29.3244 103.877 29.3244C103.689 29.3244 103.502 29.2888 103.314 29.2178V28.6068C103.418 28.6456 103.521 28.6648 103.625 28.6648C104.013 28.6648 104.295 28.3237 104.473 27.6417C104.651 26.9597 104.763 25.9426 104.808 24.5915H108.232V29.2469H107.456V25.309H105.564ZM113.432 29.2469H111.22V24.5915H111.996V26.2211H113.432C113.988 26.2211 114.428 26.3632 114.751 26.6475C115.074 26.9321 115.236 27.2944 115.236 27.7339C115.236 28.1736 115.074 28.5357 114.751 28.82C114.428 29.1043 113.988 29.2469 113.432 29.2469ZM111.996 26.919V28.5485H113.335C113.684 28.5485 113.957 28.4806 114.154 28.345C114.352 28.2091 114.45 28.0055 114.45 27.7339C114.45 27.4624 114.352 27.2589 114.154 27.1226C113.957 26.9873 113.684 26.919 113.335 26.919H111.996ZM118.564 29.2469H117.789V24.5915H118.564V26.5604H121.26V24.5915H122.037V29.2469H121.26V27.2779H118.564V29.2469ZM127.237 29.2469H125.025V24.5915H125.801V26.2211H127.237C127.793 26.2211 128.233 26.3632 128.556 26.6475C128.879 26.9321 129.041 27.2944 129.041 27.7339C129.041 28.1736 128.879 28.5357 128.556 28.82C128.233 29.1043 127.793 29.2469 127.237 29.2469ZM125.801 26.919V28.5485H127.14C127.489 28.5485 127.762 28.4806 127.959 28.345C128.157 28.2091 128.255 28.0055 128.255 27.7339C128.255 27.4624 128.157 27.2589 127.959 27.1226C127.762 26.9873 127.489 26.919 127.14 26.919H125.801ZM130.719 29.2469H129.943V24.5915H130.719V29.2469ZM137.209 23.4662C136.827 23.7377 136.375 23.874 135.851 23.874C135.327 23.874 134.875 23.7377 134.493 23.4662V22.7683C134.926 23.0526 135.379 23.1947 135.851 23.1947C136.323 23.1947 136.776 23.0526 137.209 22.7683V23.4662ZM134.367 29.2469H133.708V24.5915H134.484V27.9955L137.335 24.5915H137.995V29.2469H137.218V25.8425L134.367 29.2469ZM148.733 24.5915H149.625L147.918 26.8511L149.722 29.2469H148.83L147.472 27.4041L146.104 29.2469H145.212L147.026 26.8511L145.309 24.5915H146.201L147.472 26.3085L148.733 24.5915ZM152.314 28.7086C151.822 28.2722 151.576 27.6757 151.576 26.919C151.576 26.1627 151.822 25.5662 152.314 25.1297C152.805 24.6932 153.387 24.4749 154.059 24.4749C154.738 24.4749 155.321 24.6932 155.81 25.1297C156.298 25.5662 156.542 26.1627 156.542 26.919C156.542 27.6757 156.298 28.2722 155.81 28.7086C155.321 29.1451 154.738 29.3635 154.059 29.3635C153.387 29.3635 152.805 29.1451 152.314 28.7086ZM155.282 28.1656C155.605 27.8585 155.766 27.4429 155.766 26.919C155.766 26.3955 155.605 25.9802 155.282 25.6728C154.958 25.3657 154.55 25.2124 154.059 25.2124C153.568 25.2124 153.16 25.3657 152.837 25.6728C152.514 25.9802 152.352 26.3955 152.352 26.919C152.352 27.4429 152.514 27.8585 152.837 28.1656C153.16 28.4726 153.568 28.6261 154.059 28.6261C154.55 28.6261 154.958 28.4726 155.282 28.1656ZM160.734 25.309C160.702 25.8197 160.663 26.2662 160.617 26.6475C160.572 27.0292 160.508 27.3962 160.424 27.7484C160.339 28.1009 160.238 28.3869 160.118 28.6068C159.998 28.8264 159.848 29.0013 159.667 29.1303C159.486 29.2601 159.279 29.3244 159.046 29.3244C158.859 29.3244 158.671 29.2888 158.484 29.2178V28.6068C158.587 28.6456 158.691 28.6648 158.794 28.6648C159.182 28.6648 159.465 28.3237 159.643 27.6417C159.821 26.9597 159.932 25.9426 159.977 24.5915H163.401V29.2469H162.625V25.309H160.734ZM166.681 30.5079H165.924V28.5485H166.545C167.094 27.5787 167.36 26.2598 167.34 24.5915H170.813V28.5485H171.491V30.5079H170.735V29.2469H166.681V30.5079ZM168.087 25.2898C168.055 26.5636 167.822 27.6497 167.389 28.5485H170.037V25.2898H168.087ZM174.743 29.2469H174.083V24.5915H174.859V27.9955L177.71 24.5915H178.37V29.2469H177.594V25.8425L174.743 29.2469ZM182.135 29.2469H181.359V24.5915H182.135V26.5604H184.831V24.5915H185.607V29.2469H184.831V27.2779H182.135V29.2469ZM189.372 29.2469H188.596V24.5915H192V25.309H189.372V29.2469Z" fill=""/>
<path d="M64.0432 0.0468864L55.6959 6.21488L65.6564 14.1569H60.2267L53.0046 8.21738L49.45 10.834L49.4532 14.1569H46.1183L46.0923 0.0468864H49.3906L49.4093 7.00709L58.8794 0.0468864H64.0432Z" fill=""/>
</svg>
