<svg width="38" height="24" viewBox="0 0 38 24" fill="none" xmlns="http://www.w3.org/2000/svg">
<g clip-path="url(#clip0)">
<path d="M24.137 2.56989H13.8623V21.4604H24.137V2.56989Z" fill="#FF5F00"/>
<path d="M14.515 12.0152C14.515 8.17699 16.2764 4.7727 18.9837 2.56992C16.994 0.967893 14.4824 0 11.7425 0C5.2515 0 0 5.37345 0 12.0152C0 18.6569 5.2515 24.0303 11.7425 24.0303C14.4824 24.0303 16.994 23.0625 18.9837 21.4604C16.2764 19.291 14.515 15.8534 14.515 12.0152Z" fill="#EB001B"/>
<path d="M38.0003 12.0152C38.0003 18.6569 32.7488 24.0303 26.2578 24.0303C23.5179 24.0303 21.0063 23.0625 19.0166 21.4604C21.7565 19.2577 23.4853 15.8534 23.4853 12.0152C23.4853 8.17699 21.7239 4.7727 19.0166 2.56992C21.0063 0.967893 23.5179 0 26.2578 0C32.7488 0 38.0003 5.40683 38.0003 12.0152Z" fill="#F79E1B"/>
</g>
<defs>
<clipPath id="clip0">
<rect width="38" height="24" fill="white"/>
</clipPath>
</defs>
</svg>
