<svg width="24" height="24" viewBox="0 0 24 24" fill="none" xmlns="http://www.w3.org/2000/svg">
  <path d="M17.5958 7.92289V3.59622C17.5958 3.37083 17.4733 3.16993 17.2724 3.06703C17.0764 2.96413 16.8363 2.97883 16.6501 3.10623C12.3479 6.0805 9.87832 6.4627 8.20743 6.4627H3.42997C1.53859 6.4627 0 8.00129 0 9.89267V11.1667C0 13.058 1.53859 14.5966 3.42997 14.5966H5.72315L8.21233 20.6285C8.30543 20.8588 8.53083 21.0009 8.76603 21.0009C8.84443 21.0009 8.91793 20.9862 8.99633 20.9568C9.30502 20.8294 9.44712 20.4815 9.32462 20.1728L7.02164 14.5966H8.20253C14.0237 14.5966 16.4051 17.6787 16.5129 17.8208C16.6305 17.9776 16.8069 18.0658 16.9931 18.0658C17.0568 18.0658 17.1205 18.056 17.1793 18.0364C17.4243 17.9531 17.5909 17.7277 17.5909 17.468V13.1462C18.7815 12.8718 19.6684 11.8086 19.6684 10.5346C19.6782 9.26058 18.7864 8.19238 17.5958 7.92289ZM1.20049 11.1667V9.89267C1.20049 8.66278 2.20008 7.66319 3.42997 7.66319H5.52715V13.3961H3.42997C2.20008 13.3961 1.20049 12.3965 1.20049 11.1667ZM16.3953 16.0225C15.0625 14.9249 12.4459 13.3961 8.20253 13.3961H6.72274V7.66319H8.20253C9.91752 7.66319 12.3773 7.31039 16.3953 4.72321V16.0225ZM17.5958 11.8821V9.18218C18.1152 9.41247 18.4728 9.93187 18.4728 10.5346C18.4777 11.1324 18.1152 11.6518 17.5958 11.8821Z" fill="#112145" />
  <path d="M23.397 9.93182H21.05C20.7168 9.93182 20.4473 10.2013 20.4473 10.5345C20.4473 10.8677 20.7168 11.1372 21.05 11.1372H23.397C23.7302 11.1372 23.9997 10.8677 23.9997 10.5345C23.9997 10.1964 23.7302 9.93182 23.397 9.93182Z" fill="#112145" />
  <path d="M20.2175 8.6677C20.3106 8.9029 20.536 9.04989 20.7761 9.04989C20.8496 9.04989 20.9231 9.0352 20.9966 9.0107L23.2702 8.1189C23.5789 7.99641 23.7308 7.64851 23.6083 7.33981C23.4858 7.03112 23.1379 6.87922 22.8292 7.00172L20.5556 7.89351C20.2518 8.01111 20.0999 8.359 20.2175 8.6677Z" fill="#112145" />
  <path d="M23.2689 12.9404L20.9954 12.0487C20.6867 11.9262 20.3388 12.0781 20.2163 12.3867C20.0938 12.6954 20.2457 13.0433 20.5544 13.1658L22.8279 14.0576C22.9014 14.087 22.9749 14.0968 23.0484 14.0968C23.2885 14.0968 23.5139 13.9498 23.607 13.7146C23.7295 13.4108 23.5776 13.0629 23.2689 12.9404Z" fill="#112145" />
</svg>
