<svg width="40" height="22" viewBox="0 0 40 22" fill="none" xmlns="http://www.w3.org/2000/svg">
  <path d="M8.87345 16.0172C7.96097 16.0172 7.21875 16.773 7.21875 17.7019C7.21875 18.6309 7.96097 19.3867 8.87345 19.3867C9.78568 19.3867 10.5279 18.6309 10.5279 17.7019C10.5279 16.773 9.78568 16.0172 8.87345 16.0172ZM8.87345 18.0731C8.67248 18.0731 8.50866 17.9066 8.50866 17.7019C8.50866 17.4973 8.67248 17.3307 8.87345 17.3307C9.07442 17.3307 9.23799 17.4973 9.23799 17.7019C9.23799 17.9066 9.07442 18.0731 8.87345 18.0731Z" fill="#112145" />
  <path d="M31.4787 16.0172C30.5664 16.0172 29.8242 16.773 29.8242 17.7019C29.8242 18.6309 30.5664 19.3867 31.4787 19.3867C32.3909 19.3867 33.1331 18.6309 33.1331 17.7019C33.1331 16.773 32.3909 16.0172 31.4787 16.0172ZM31.4787 18.0731C31.2777 18.0731 31.1141 17.9066 31.1141 17.7019C31.1141 17.4973 31.2777 17.3307 31.4787 17.3307C31.6796 17.3307 31.8432 17.4973 31.8432 17.7019C31.8432 17.9066 31.6796 18.0731 31.4787 18.0731Z" fill="#112145" />
  <path d="M8.87371 13.403C6.54619 13.403 4.65234 15.3315 4.65234 17.7016C4.65234 20.0717 6.54619 22 8.87371 22C11.2012 22 13.0948 20.0717 13.0948 17.7016C13.0948 15.3315 11.2012 13.403 8.87371 13.403ZM8.87371 20.6867C7.25719 20.6867 5.94226 19.3477 5.94226 17.7019C5.94226 16.056 7.25745 14.7167 8.87371 14.7167C10.49 14.7167 11.8049 16.056 11.8049 17.7019C11.8049 19.3477 10.49 20.6867 8.87371 20.6867Z" fill="#112145" />
  <path d="M31.4788 13.5028C29.2052 13.5028 27.3555 15.3864 27.3555 17.7016C27.3555 20.0168 29.2052 21.9004 31.4788 21.9004C33.7524 21.9004 35.6022 20.0168 35.6022 17.7016C35.6022 15.3864 33.7524 13.5028 31.4788 13.5028ZM31.4788 20.5872C29.9162 20.5872 28.6454 19.2928 28.6454 17.7019C28.6454 16.1109 29.9165 14.8166 31.4788 14.8166C33.0411 14.8166 34.3122 16.1109 34.3122 17.7019C34.3122 19.2928 33.0411 20.5872 31.4788 20.5872Z" fill="#112145" />
  <path d="M39.9711 9.64025C38.8602 5.99574 35.9424 2.4521 34.3935 0.932617C33.6701 0.223575 31.5005 0 30.951 0H2.29399C0.981116 0 0 1.3913 0 2.63494V16.6166C0 17.8051 0.949892 18.7724 2.11701 18.7724H2.95339C3.30966 18.7724 3.59835 18.4784 3.59835 18.1156C3.59835 17.7528 3.30966 17.4589 2.95339 17.4589H2.11701C1.66089 17.4589 1.28991 17.0811 1.28991 16.6166V2.6352C1.28991 1.99315 1.80589 1.3138 2.29399 1.3138H30.951C31.711 1.3138 33.2365 1.62248 33.4986 1.87888C34.9453 3.29775 37.6552 6.57867 38.7101 9.93605V16.6169C38.7101 17.0814 38.3391 17.4591 37.883 17.4591H37.0466C36.6903 17.4591 36.4017 17.7531 36.4017 18.1159C36.4017 18.4787 36.6903 18.7727 37.0466 18.7727H37.883C39.0501 18.7727 40 17.8054 40 16.6169V9.83517C40 9.76897 39.9902 9.7033 39.9711 9.64025Z" fill="#112145" />
  <path d="M25.7242 17.4592H14.7739C14.4176 17.4592 14.1289 17.7532 14.1289 18.116C14.1289 18.4788 14.4176 18.7728 14.7739 18.7728H25.7242C26.0805 18.7728 26.3692 18.4788 26.3692 18.116C26.3692 17.7532 26.0805 17.4592 25.7242 17.4592Z" fill="#112145" />
  <path d="M2.64453 8.75857C2.64453 9.12137 2.93321 9.41533 3.28949 9.41533H25.1151C25.4714 9.41533 25.7601 9.12137 25.7601 8.75857C25.7601 8.39577 25.4714 8.10181 25.1151 8.10181H3.28949C2.93321 8.10181 2.64453 8.39577 2.64453 8.75857Z" fill="#112145" />
  <path d="M10.786 6.29968V3.26174C10.786 2.89895 10.4973 2.60498 10.1411 2.60498C9.78478 2.60498 9.49609 2.89895 9.49609 3.26174V6.29968C9.49609 6.66247 9.78478 6.95644 10.1411 6.95644C10.4973 6.95644 10.786 6.66247 10.786 6.29968Z" fill="#112145" />
  <path d="M19.5985 6.29968V3.26174C19.5985 2.89895 19.3098 2.60498 18.9536 2.60498C18.5973 2.60498 18.3086 2.89895 18.3086 3.26174V6.29968C18.3086 6.66247 18.5973 6.95644 18.9536 6.95644C19.3098 6.95644 19.5985 6.66247 19.5985 6.29968Z" fill="#112145" />
  <path d="M21.9692 10.9172C21.6129 10.9172 21.3242 11.2112 21.3242 11.574C21.3242 11.9368 21.6129 12.2308 21.9692 12.2308H23.934C24.2902 12.2308 24.5789 11.9368 24.5789 11.574C24.5789 11.2112 24.2902 10.9172 23.934 10.9172H21.9692Z" fill="#112145" />
  <path d="M36.8699 8.86924C36.8699 8.50645 36.5812 8.21248 36.225 8.21248H28.5946V3.30252C28.5946 2.93972 28.3059 2.64575 27.9496 2.64575C27.5934 2.64575 27.3047 2.93972 27.3047 3.30252V8.86924C27.3047 9.23204 27.5934 9.52601 27.9496 9.52601H36.225C36.5812 9.52601 36.8699 9.23178 36.8699 8.86924Z" fill="#112145" />
</svg>
