<svg width="27" height="16" viewBox="0 0 27 16" fill="none" xmlns="http://www.w3.org/2000/svg">
<g opacity="0.3">
<path fill-rule="evenodd" clip-rule="evenodd" d="M23 8C23 9.10457 22.1046 10 21 10C19.8954 10 19 9.10457 19 8C19 6.89543 19.8954 6 21 6C22.1046 6 23 6.89543 23 8ZM22 8C22 8.55228 21.5523 9 21 9C20.4477 9 20 8.55228 20 8C20 7.44772 20.4477 7 21 7C21.5523 7 22 7.44772 22 8Z" fill="#112145"/>
<path fill-rule="evenodd" clip-rule="evenodd" d="M0 2C0 0.895431 0.895431 0 2 0H22.614C23.4477 0 24.1939 0.517146 24.4867 1.29775L26.7367 7.29775C26.9064 7.75052 26.9064 8.24948 26.7367 8.70225L24.4867 14.7022C24.1939 15.4829 23.4477 16 22.614 16H2C0.89543 16 0 15.1046 0 14V2ZM2 1H22.614C23.0308 1 23.404 1.25857 23.5503 1.64888L25.8003 7.64888C25.8852 7.87526 25.8852 8.12474 25.8003 8.35112L23.5503 14.3511C23.404 14.7414 23.0308 15 22.614 15H2C1.44772 15 1 14.5523 1 14V2C1 1.44772 1.44772 1 2 1Z" fill="#112145"/>
</g>
<path d="M7.11243 13L11.9527 3H10.8994L6.05917 13H7.11243ZM8.07101 5.57317C8.07101 4.26829 7.12426 3.57317 6.04734 3.57317C4.95858 3.57317 4 4.26829 4 5.57317C4 6.87805 4.95858 7.57317 6.04734 7.57317C7.12426 7.57317 8.07101 6.87805 8.07101 5.57317ZM5.08876 5.57317C5.08876 5.06098 5.39645 4.60976 6.0355 4.60976C6.66272 4.60976 6.95858 5.06098 6.95858 5.57317C6.95858 6.08537 6.66272 6.53659 6.0355 6.53659C5.39645 6.53659 5.08876 6.08537 5.08876 5.57317ZM14 10.4268C14 9.12195 13.0533 8.42683 11.9763 8.42683C10.8876 8.42683 9.92899 9.12195 9.92899 10.4268C9.92899 11.7317 10.8876 12.4268 11.9763 12.4268C13.0533 12.4268 14 11.7317 14 10.4268ZM11.0296 10.4268C11.0296 9.91463 11.3373 9.46342 11.9763 9.46342C12.6036 9.46342 12.8994 9.91463 12.8994 10.4268C12.8994 10.939 12.6036 11.3902 11.9763 11.3902C11.3373 11.3902 11.0296 10.939 11.0296 10.4268Z" fill="#112145"/>
</svg>
