<svg width="40" height="19" viewBox="0 0 40 19" fill="none" xmlns="http://www.w3.org/2000/svg">
  <path d="M7.88846 13.4895C7.01943 13.4895 6.3125 14.2148 6.3125 15.1063C6.3125 15.9981 7.01943 16.7234 7.88846 16.7234C8.75748 16.7234 9.46443 15.9981 9.46443 15.1063C9.46466 14.215 8.75748 13.4895 7.88846 13.4895ZM7.88846 15.5114C7.67085 15.5114 7.49388 15.3296 7.49388 15.1063C7.49388 14.8831 7.67085 14.7015 7.88846 14.7015C8.10607 14.7015 8.28304 14.8831 8.28304 15.1063C8.28304 15.3296 8.10607 15.5114 7.88846 15.5114Z" fill="#112145" />
  <path d="M31.9968 13.4869C31.1261 13.4869 30.418 14.2134 30.418 15.1067C30.418 15.9999 31.1263 16.7266 31.9968 16.7266C32.8672 16.7266 33.5756 15.9999 33.5756 15.1067C33.5756 14.2134 32.8672 13.4869 31.9968 13.4869ZM31.9968 15.5144C31.7775 15.5144 31.5994 15.3313 31.5994 15.1064C31.5994 14.8815 31.7775 14.6987 31.9968 14.6987C32.216 14.6987 32.3942 14.8815 32.3942 15.1064C32.3942 15.3313 32.2158 15.5144 31.9968 15.5144Z" fill="#112145" />
  <path d="M7.88468 11.2134C5.79222 11.2134 4.08984 12.9599 4.08984 15.1066C4.08984 17.2533 5.79222 19 7.88468 19C9.97714 19 11.6798 17.2535 11.6798 15.1066C11.6798 12.9599 9.97738 11.2134 7.88468 11.2134ZM7.88468 17.7877C6.44363 17.7877 5.27123 16.5849 5.27123 15.1063C5.27123 13.6279 6.44363 12.4251 7.88468 12.4251C9.32573 12.4251 10.4984 13.6279 10.4984 15.1063C10.4984 16.5849 9.32573 17.7877 7.88468 17.7877Z" fill="#112145" />
  <path d="M31.9982 11.2134C29.9057 11.2134 28.2031 12.9599 28.2031 15.1066C28.2031 17.2533 29.9055 19 31.9982 19C34.0909 19 35.7933 17.2535 35.7933 15.1066C35.793 12.9599 34.0907 11.2134 31.9982 11.2134ZM31.9982 17.7877C30.5571 17.7877 29.3845 16.5849 29.3845 15.1063C29.3845 13.6279 30.5569 12.4251 31.9982 12.4251C33.4395 12.4251 34.6119 13.6279 34.6119 15.1063C34.6117 16.5849 33.4392 17.7877 31.9982 17.7877Z" fill="#112145" />
  <path d="M26.8868 14.4067H12.9501C12.6238 14.4067 12.3594 14.678 12.3594 15.0127C12.3594 15.3475 12.6238 15.6187 12.9501 15.6187H26.8868C27.2131 15.6187 27.4775 15.3475 27.4775 15.0127C27.4775 14.678 27.2131 14.4067 26.8868 14.4067Z" fill="#112145" />
  <path d="M38.5809 10.8241V7.71534C38.5809 7.46082 38.4259 7.23369 38.1932 7.14618C37.8863 7.0308 35.1665 6.01684 34.1961 5.87116C33.393 5.75044 30.487 5.69736 29.4297 5.68209C28.9848 4.66668 27.6435 1.82309 25.9073 0.162655C25.7979 0.0581808 25.654 0 25.5044 0H18.7474C18.0776 0 17.5325 0.558986 17.5325 1.24619V6.73362H1.00283C0.698265 6.73362 0.443792 6.97093 0.41473 7.28217L0.00266679 11.7147C-0.00182246 11.7627 -0.000644828 11.8114 0.00620719 11.8594L0.418278 14.7711C0.460335 15.069 0.70937 15.2901 1.00283 15.2901H2.81601C3.1423 15.2901 3.4067 15.0188 3.4067 14.6841C3.4067 14.3493 3.1423 14.0781 2.81601 14.0781H1.51389L1.18546 11.7576L1.53988 7.94586H18.1232C18.4495 7.94586 18.7139 7.67461 18.7139 7.33986V1.24642C18.7139 1.22776 18.7287 1.21225 18.7474 1.21225H25.2663C27.092 3.07824 28.4806 6.47983 28.495 6.51522C28.5855 6.7392 28.7977 6.88633 29.0339 6.889C30.1721 6.90185 33.2874 6.95977 34.025 7.07055C34.6495 7.16436 36.4181 7.78248 37.3995 8.14099V11.2136C37.3995 11.6386 37.7365 11.9845 38.1507 11.9845C38.519 11.9845 38.8186 12.2918 38.8186 12.6695V13.8863C38.8186 14.1736 38.5911 14.4068 38.3113 14.4068H37.1205C36.7942 14.4068 36.5298 14.678 36.5298 15.0128C36.5298 15.3475 36.7942 15.6188 37.1205 15.6188H38.3113C39.2425 15.6188 40 14.8416 40 13.8863V12.6695C40 11.7753 39.394 11.0236 38.5809 10.8241Z" fill="#112145" />
  <path d="M26.9104 7.16801H21.1384V2.91923C21.1384 2.58448 20.874 2.31323 20.5477 2.31323C20.2214 2.31323 19.957 2.58448 19.957 2.91923V7.77401C19.957 8.10876 20.2214 8.38001 20.5477 8.38001H26.9104C27.2367 8.38001 27.5011 8.10876 27.5011 7.77401C27.5011 7.43925 27.2367 7.16801 26.9104 7.16801Z" fill="#112145" />
  <path d="M22.908 10.8341C23.2343 10.8341 23.4987 10.5628 23.4987 10.2281C23.4987 9.89332 23.2343 9.62207 22.908 9.62207H20.8368C20.5105 9.62207 20.2461 9.89332 20.2461 10.2281C20.2461 10.5628 20.5105 10.8341 20.8368 10.8341H22.908Z" fill="#112145" />
</svg>
