<svg width="32" height="32" viewBox="0 0 32 32" fill="none" xmlns="http://www.w3.org/2000/svg">
<g clip-path="url(#clip0)">
<path d="M10.3064 9.60123C9.57736 8.87246 8.39546 8.87271 7.66669 9.60172C6.93792 10.3307 6.93792 11.5124 7.66669 12.2414C8.39546 12.9704 9.57736 12.9704 10.3064 12.2419C11.0347 11.5119 11.0344 10.3302 10.3059 9.60075L10.3064 9.60123ZM9.55173 11.4865C9.32297 11.7155 8.97872 11.7839 8.67989 11.6601C8.38081 11.5363 8.18599 11.2446 8.18599 10.9211C8.18599 10.5973 8.38081 10.3056 8.67989 10.1818C8.97872 10.058 9.32297 10.1266 9.55173 10.3554C9.86399 10.6677 9.86399 11.1743 9.55173 11.4865Z" fill="#161515"/>
<path d="M23.5322 27.8659C24.1682 27.8677 24.7784 27.615 25.2266 27.1643C26.0386 26.3542 26.1651 25.0834 25.5289 24.1293C24.8924 23.1752 23.6707 22.8038 22.6108 23.2421C21.5512 23.6803 20.9487 24.8063 21.1723 25.9311C21.3957 27.0559 22.3828 27.8662 23.5296 27.8659H23.5322ZM22.5889 24.5241C23.1096 24.0033 23.9539 24.0033 24.4746 24.5241C24.9954 25.0448 24.9954 25.8893 24.4746 26.4101C23.9466 26.9126 23.1169 26.9126 22.5889 26.4101C22.3386 26.1599 22.1982 25.8207 22.1982 25.467C22.1982 25.1135 22.3386 24.7741 22.5889 24.5241Z" fill="#161515"/>
<path d="M26.0311 2.24958C25.8309 2.04962 25.5596 1.93707 25.2767 1.93707C24.9937 1.93707 24.7222 2.04962 24.5223 2.24958L23.3909 3.37874L21.8826 4.88707L16.6027 10.1672C16.3024 10.4672 16.134 10.8742 16.134 11.2985C16.134 11.7231 16.3024 12.1301 16.6027 12.4301L16.7973 12.6237C17.1564 12.9809 17.6638 13.1469 18.1647 13.0713C18.1672 13.0708 18.1699 13.0708 18.1723 13.0713L18.2197 13.0659H18.2282L17.1935 14.1006C16.8622 14.4316 16.4533 14.8162 15.9999 15.2258C15.5253 14.7991 15.1147 14.4136 14.8031 14.1025L13.7706 13.0659C13.7887 13.0659 13.8073 13.0691 13.8239 13.0718C13.8263 13.0715 13.829 13.0715 13.8314 13.0718C14.3324 13.1482 14.8397 12.9824 15.1989 12.6247L15.394 12.4301C16.0187 11.8054 16.0187 10.7924 15.394 10.1677L10.1141 4.88755L8.60895 3.37874L7.47758 2.24958C7.05546 1.8465 6.3909 1.8465 5.96877 2.24958L0.312199 7.90298C-0.104066 8.31973 -0.104066 8.99479 0.312199 9.4113L1.44356 10.5432L8.23174 17.3326C8.5318 17.6326 8.93903 17.8013 9.36335 17.8013C9.78768 17.8013 10.1947 17.6326 10.4947 17.3326L10.6888 17.138C11.0252 16.7969 11.1903 16.3228 11.138 15.8467C11.138 15.8413 11.1412 15.8372 11.1412 15.8318C11.1407 15.8057 11.1388 15.7796 11.1354 15.7539C11.1354 15.7378 11.1327 15.7234 11.1305 15.708L12.1664 16.741C12.4362 17.011 12.7477 17.3389 13.0678 17.69C10.9989 19.3048 8.80085 20.7684 7.5208 21.0399C7.21977 21.1063 6.92655 21.2047 6.64627 21.3331L6.41898 21.106C6.21902 20.9058 5.94753 20.7933 5.66457 20.7933C5.38161 20.7933 5.11012 20.9058 4.91016 21.106L4.15967 21.858C3.95971 22.058 3.84716 22.3295 3.84716 22.6124C3.84716 22.8954 3.95971 23.1666 4.15967 23.3668L4.36084 23.5673C3.69018 24.9948 3.81616 26.6694 4.69312 27.9802C5.0298 28.4772 5.45802 28.9057 5.95437 29.2431C7.26396 30.1281 8.94367 30.2551 10.3717 29.5776L10.5711 29.7776C10.7711 29.9778 11.0426 30.0901 11.3255 30.0901C11.6085 30.0901 11.8797 29.9778 12.0799 29.7776L12.8314 29.0234C13.2477 28.6069 13.2477 27.9316 12.8314 27.5151L12.6041 27.2873C12.7321 27.0077 12.8302 26.7155 12.8964 26.4154C13.1547 25.2047 14.4843 23.1656 15.9967 21.1939C17.7744 23.5092 18.8767 25.3539 19.1045 26.412C19.1704 26.7133 19.2685 27.0065 19.3967 27.2868L19.1692 27.5146C18.969 27.7145 18.8564 27.986 18.8564 28.269C18.8564 28.552 18.969 28.8234 19.1692 29.0234L19.9231 29.7776C20.1233 29.9778 20.3945 30.0901 20.6777 30.0901C20.9607 30.0901 21.2319 29.9778 21.4321 29.7776L21.6316 29.5781C23.0586 30.2546 24.7371 30.1279 26.0465 29.2448C26.2955 29.0766 26.5277 28.885 26.7398 28.6726C26.9508 28.4619 27.1407 28.2309 27.3067 27.9833C28.1852 26.672 28.3119 24.9962 27.6407 23.5678L27.8416 23.3668C28.0418 23.1666 28.1544 22.8954 28.1544 22.6124C28.1544 22.3295 28.0418 22.058 27.8416 21.858L27.0882 21.1038C26.6715 20.6873 25.9964 20.6873 25.5799 21.1038L25.3521 21.3316C25.073 21.2017 24.7801 21.1041 24.479 21.0404C23.366 20.8031 21.4038 19.6099 18.9323 17.6846C19.258 17.3299 19.5622 17.011 19.833 16.74L20.8677 15.7053C20.865 15.7251 20.8645 15.7422 20.8618 15.7634C20.8586 15.7908 20.8572 15.8186 20.8572 15.8462C20.8572 15.8508 20.8599 15.8552 20.8599 15.8599C20.811 16.3323 20.9758 16.8018 21.3093 17.1399L21.5034 17.3348C21.8035 17.6348 22.2105 17.8035 22.635 17.8035C23.0593 17.8035 23.4663 17.6348 23.7664 17.3348L30.5565 10.5441L31.6876 9.41252C32.1042 8.99601 32.1042 8.32071 31.6876 7.9042L26.0311 2.24958ZM29.4252 10.1699L28.6705 10.924L23.0139 5.26402L23.7681 4.50986L26.5948 7.33656L29.4252 10.1699ZM5.40358 7.34316L8.23028 4.51645L8.98444 5.27062L3.32933 10.9213L2.57468 10.1672L5.40358 7.34316ZM6.72293 3.00594L7.47758 3.76058L1.82418 9.41399L1.06636 8.65836L6.72293 3.00594ZM9.93489 16.3831L9.74056 16.5779C9.6407 16.678 9.50496 16.7344 9.36335 16.7344C9.22175 16.7344 9.08601 16.678 8.98591 16.5779L4.08349 11.6755L9.74007 6.01819L14.6432 10.9213C14.8512 11.1296 14.8512 11.4672 14.6432 11.6755L14.4479 11.8696C14.3244 11.9885 14.152 12.0422 13.9828 12.0146C13.9716 12.0146 13.9611 12.0146 13.9498 12.0119C13.8527 11.9997 13.7545 11.988 13.6207 11.9831H13.6C13.5275 11.9831 13.4555 11.9831 13.3829 11.9885C13.3519 11.9885 13.3204 11.9885 13.2907 11.9885H13.2553C13.0011 12.0066 12.7494 12.0529 12.5055 12.1272C12.4803 12.1347 12.4596 12.1372 12.434 12.1452L12.4227 12.1496C12.4159 12.1523 12.4095 12.1533 12.4032 12.156C12.3199 12.1843 12.2399 12.2194 12.1588 12.2541C12.1359 12.2636 12.1097 12.2722 12.088 12.2817L12.0782 12.2861L12.025 12.3112C11.9662 12.3371 11.909 12.3667 11.8544 12.4001L11.732 12.4702C11.7176 12.4792 11.7027 12.4865 11.6883 12.4956L11.6703 12.5058C11.5934 12.559 11.5104 12.6125 11.4393 12.6657L11.4254 12.6782C11.3907 12.7043 11.3573 12.7314 11.3236 12.758C11.233 12.8296 11.1468 12.9062 11.0655 12.988C10.9837 13.0698 10.9068 13.156 10.8351 13.2466C10.808 13.2798 10.7818 13.3132 10.7562 13.3469L10.7437 13.3618C10.6981 13.4216 10.6495 13.4924 10.5919 13.5801C10.5807 13.5976 10.568 13.6147 10.5567 13.6333L10.4937 13.7449C10.473 13.7778 10.4618 13.8076 10.4442 13.8408C10.3619 13.9951 10.2918 14.1555 10.2345 14.3208C10.2308 14.3288 10.2291 14.3374 10.2259 14.3452C10.2227 14.3533 10.2259 14.3569 10.2213 14.3623L10.2137 14.3816C10.2042 14.4136 10.1983 14.4477 10.1893 14.4802C10.1561 14.5947 10.129 14.7112 10.1082 14.8286C10.097 14.8882 10.0889 14.9421 10.0841 14.9885C10.075 15.0627 10.0677 15.1367 10.0628 15.2114V15.2173C10.0543 15.2976 10.0516 15.3787 10.0548 15.4595V15.531V15.5874C10.0584 15.677 10.0692 15.7666 10.0814 15.8633V15.8674C10.0814 15.8823 10.0814 15.8972 10.0846 15.9124C10.1131 16.0842 10.0575 16.2593 9.93489 16.3831ZM12.9215 15.9837L11.3456 14.4126C11.4164 14.2656 11.5021 14.1265 11.6014 13.9971C11.61 13.9858 11.619 13.9768 11.6256 13.9673C11.6319 13.9575 11.6505 13.9368 11.6617 13.9223L11.6671 13.9155C11.7145 13.8589 11.7626 13.8025 11.8153 13.749C11.868 13.6958 11.922 13.6499 11.9791 13.603C12.0006 13.5896 12.0206 13.574 12.0389 13.5564C12.0538 13.5464 12.0665 13.5346 12.0804 13.5234C12.1991 13.4338 12.326 13.3557 12.4596 13.2898C12.4659 13.2898 12.4708 13.2839 12.4777 13.2807L14.0495 14.8567C14.3541 15.1614 14.7428 15.5303 15.1962 15.9378C14.786 16.292 14.3524 16.6563 13.9035 17.021C13.5556 16.6382 13.2155 16.2793 12.9205 15.9841L12.9215 15.9837ZM24.2666 22.0851C24.596 22.1507 24.9124 22.2691 25.2039 22.4361C25.2195 22.4437 25.2356 22.4503 25.2523 22.4559C25.263 22.4606 25.2732 22.465 25.2837 22.4686C25.4009 22.5184 25.5335 22.5184 25.6507 22.4686C25.6614 22.465 25.6714 22.4606 25.6822 22.4559C25.7442 22.4298 25.8006 22.392 25.848 22.3443L26.3345 21.858L27.0887 22.6122L26.6173 23.0836C26.6075 23.0936 26.6043 23.1066 26.5953 23.1166C26.5723 23.1446 26.5523 23.1747 26.5355 23.2067C26.4993 23.2631 26.4781 23.3278 26.4742 23.3944C26.4686 23.4281 26.4664 23.4623 26.4678 23.4965C26.4713 23.5287 26.4774 23.5607 26.4864 23.5919C26.4947 23.6276 26.5069 23.6622 26.5228 23.6952C26.5286 23.7076 26.5286 23.7208 26.5355 23.7325C27.1932 24.8747 27.1493 26.2902 26.4219 27.3893C26.3343 27.5175 26.2379 27.6396 26.1334 27.7546C26.1287 27.7599 26.1216 27.7626 26.1168 27.7685C26.0782 27.8178 26.0364 27.8649 25.992 27.9091L25.9842 27.9184L25.9735 27.9279C25.9288 27.9719 25.8819 28.0134 25.8331 28.0527C25.8272 28.0571 25.8253 28.0634 25.8194 28.0681C25.7034 28.1733 25.5809 28.2705 25.4517 28.3588C24.3531 29.0842 22.939 29.1274 21.7979 28.4704C21.7861 28.4633 21.7727 28.4633 21.7605 28.4575C21.7278 28.4416 21.6931 28.4294 21.6577 28.4213C21.6262 28.4118 21.5938 28.4057 21.561 28.4025C21.5276 28.4013 21.4939 28.4033 21.4609 28.4084C21.427 28.4116 21.3936 28.4182 21.3611 28.4282C21.2969 28.4533 21.2366 28.4877 21.1819 28.53C21.1716 28.539 21.1584 28.5422 21.1489 28.552L20.6772 29.0234L19.9231 28.2692L20.4133 27.779C20.4209 27.7712 20.4236 27.7604 20.4309 27.7524C20.4575 27.7216 20.48 27.6874 20.498 27.6511C20.5124 27.6269 20.5249 27.6015 20.5354 27.5754C20.5469 27.5383 20.5544 27.4999 20.5578 27.4611C20.5705 27.3964 20.5654 27.3293 20.543 27.267C20.5359 27.2353 20.5259 27.204 20.5124 27.1742C20.5073 27.1625 20.5073 27.1498 20.5007 27.1386C20.3347 26.8434 20.2156 26.5238 20.1482 26.1918C19.8122 24.6212 18.1301 22.1971 16.6779 20.325C17.1979 19.6761 17.7211 19.0535 18.2197 18.4839C20.1599 20.0025 22.6528 21.7411 24.2666 22.0851ZM19.0805 15.9859C18.7514 16.3145 18.2868 16.8103 17.7541 17.4078C17.7492 17.4136 17.7424 17.4158 17.7375 17.4222C17.7329 17.4285 17.7343 17.4297 17.7316 17.4334C15.5983 19.8333 12.338 23.9171 11.8526 26.1957C11.7848 26.5265 11.6656 26.8449 11.4996 27.1391C11.4938 27.1498 11.4942 27.1611 11.4889 27.1716C11.4737 27.2057 11.4623 27.2416 11.4547 27.2783C11.4342 27.3417 11.4303 27.4096 11.4442 27.475C11.4476 27.5085 11.4542 27.5417 11.464 27.5737C11.4911 27.6374 11.5257 27.6972 11.5672 27.7524C11.5753 27.7609 11.578 27.7726 11.5865 27.7812L12.0773 28.2714L11.3226 29.0234L10.8517 28.552C10.8414 28.5422 10.8287 28.539 10.8185 28.53C10.7638 28.4875 10.7032 28.4531 10.6388 28.4277C10.6068 28.4184 10.5743 28.4123 10.5411 28.4089C10.5074 28.4033 10.473 28.4013 10.4388 28.4025C10.4066 28.406 10.3748 28.4121 10.3438 28.4213C10.307 28.4291 10.2711 28.4414 10.2371 28.4575C10.2249 28.4633 10.2115 28.4633 10.1998 28.4704C9.05817 29.1281 7.64263 29.0844 6.54373 28.3571C6.4158 28.2697 6.29397 28.1733 6.17898 28.0693C6.17312 28.0644 6.17044 28.0571 6.16409 28.0517C6.05862 27.9689 5.96365 27.874 5.88088 27.7685C5.876 27.7626 5.86916 27.7604 5.86428 27.7546C5.75881 27.6389 5.66164 27.5156 5.57375 27.3859C4.84742 26.2878 4.80445 24.8732 5.46217 23.7325C5.46901 23.7203 5.46901 23.7072 5.4756 23.6947C5.4905 23.6622 5.50246 23.6283 5.51076 23.5934C5.53395 23.4952 5.53176 23.3929 5.50441 23.2958C5.49342 23.265 5.47926 23.2355 5.46217 23.2079C5.44533 23.1752 5.42531 23.1444 5.40187 23.1161C5.39284 23.1061 5.38966 23.0931 5.38014 23.0836L4.9087 22.6122L5.66335 21.858L6.15286 22.348C6.19827 22.3917 6.25125 22.4266 6.30911 22.4515C6.32327 22.4584 6.33792 22.4645 6.35281 22.4696C6.40921 22.4911 6.46902 22.5026 6.52933 22.5038C6.58963 22.5023 6.64945 22.4908 6.70584 22.4696C6.72049 22.4647 6.73465 22.4586 6.74857 22.452C6.76249 22.4457 6.77738 22.443 6.7913 22.4349C7.08671 22.2687 7.40605 22.1493 7.73784 22.0809C9.37947 21.7315 11.963 19.9378 14.1764 18.1634C14.1823 18.1587 14.1893 18.157 14.1952 18.1524C14.2011 18.1475 14.1994 18.1453 14.202 18.1426C15.0021 17.4983 15.7531 16.8626 16.393 16.2952C17.0468 15.7153 17.591 15.2078 17.9396 14.8552L19.52 13.2803C19.6755 13.3547 19.8222 13.4458 19.9577 13.5522C19.9743 13.5666 19.9914 13.582 20.0112 13.5959L20.0188 13.6018C20.0752 13.6494 20.1311 13.6968 20.1846 13.7495C20.2378 13.8025 20.2854 13.8594 20.3327 13.916L20.3371 13.9214C20.3508 13.9399 20.3655 13.9578 20.3813 13.9746L20.3899 13.9868L20.3772 13.9746C20.385 13.9863 20.3979 14.0007 20.4097 14.0151C20.4516 14.0686 20.4939 14.1272 20.53 14.1863C20.571 14.2529 20.6084 14.3218 20.6421 14.3923C20.6448 14.3982 20.6479 14.4036 20.6511 14.4099L19.0805 15.9859ZM23.0139 16.5784C22.9138 16.6785 22.7781 16.7349 22.6365 16.7349C22.4951 16.7349 22.3591 16.6785 22.2593 16.5784L22.0652 16.3838C21.9461 16.26 21.8923 16.0874 21.9207 15.9182C21.9207 15.907 21.9207 15.8953 21.9231 15.8836C21.9356 15.7869 21.9473 15.6892 21.9519 15.5559V15.5361C21.9546 15.4461 21.9519 15.3565 21.9456 15.2695C21.9456 15.2551 21.9456 15.2402 21.9456 15.2258V15.2087C21.9287 14.9417 21.8801 14.6775 21.801 14.4216C21.7957 14.4028 21.7937 14.3879 21.7878 14.3682L21.7847 14.3603C21.7505 14.2573 21.7087 14.157 21.665 14.0578C21.6597 14.0461 21.6555 14.0322 21.6506 14.021V14.0163C21.6411 13.9961 21.6326 13.9751 21.623 13.9548C21.5974 13.897 21.5679 13.8406 21.5349 13.7864L21.4692 13.6733C21.4587 13.6553 21.449 13.6365 21.438 13.6199L21.4294 13.605C21.376 13.5278 21.3228 13.445 21.2661 13.3735L21.2549 13.3603C21.2288 13.3257 21.2017 13.292 21.175 13.2583C21.103 13.1679 21.0261 13.0815 20.9446 12.9997C20.8371 12.8945 20.7234 12.7959 20.6037 12.7048L20.5979 12.6999C20.5889 12.6926 20.5798 12.6845 20.5708 12.6775C20.5381 12.6526 20.5024 12.6242 20.4641 12.6003C20.4255 12.5761 20.3957 12.5532 20.3611 12.531C20.3391 12.5166 20.3215 12.5041 20.2966 12.4882L20.1899 12.4289C20.126 12.3928 20.0603 12.3596 19.9941 12.3276C19.9756 12.3191 19.9541 12.3054 19.9365 12.2978C19.9275 12.2942 19.9167 12.291 19.9077 12.2866C19.8093 12.2422 19.7087 12.2026 19.6059 12.1682C19.5866 12.1613 19.5713 12.1538 19.5525 12.1469L19.5361 12.1425C19.3813 12.0952 19.2236 12.0586 19.0639 12.0332C19.0368 12.0285 19.0107 12.0254 18.9878 12.0222C18.8986 12.0097 18.809 12.0007 18.7212 11.9953C18.6628 11.99 18.6064 11.988 18.5537 11.9875C18.5402 11.9875 18.5268 11.9875 18.5136 11.9875C18.5002 11.9875 18.4912 11.9875 18.4804 11.9875H18.3488C18.257 11.9917 18.1652 12.0019 18.0742 12.0141H18.0661C18.0527 12.0141 18.0395 12.0141 18.0256 12.0168C17.8561 12.0444 17.6838 11.9904 17.56 11.8718L17.3659 11.6774C17.1577 11.4692 17.1577 11.1315 17.3659 10.9233L22.2688 6.02038L27.9164 11.6755L23.0139 16.5784ZM30.1793 9.41252L24.5259 3.75912L25.2806 3.00423L30.9335 8.65836L30.1793 9.41252Z" fill="#161515"/>
<path d="M21.6941 9.60075C20.9651 10.3298 20.9653 11.5117 21.6943 12.2404C22.4231 12.9694 23.605 12.9694 24.334 12.2404C25.063 11.5117 25.063 10.3298 24.3343 9.60075C23.6043 8.8732 22.4234 8.87344 21.6936 9.60123L21.6941 9.60075ZM23.5794 11.487C23.2671 11.7995 22.7605 11.7993 22.4483 11.4868C22.136 11.1745 22.136 10.6681 22.4483 10.3556C22.7605 10.0431 23.2671 10.0431 23.5794 10.3554C23.7295 10.5053 23.814 10.7089 23.814 10.9213C23.814 11.1335 23.7295 11.3371 23.5794 11.487Z" fill="#161515"/>
<path d="M6.77326 23.7698C5.836 24.7071 5.836 26.2269 6.77326 27.1642C7.71053 28.1014 9.23009 28.1014 10.1674 27.1642C11.1046 26.2269 11.1046 24.7071 10.1674 23.7698C9.71935 23.3157 9.10801 23.0604 8.47031 23.0604C7.83236 23.0604 7.22127 23.3157 6.77326 23.7698ZM9.41319 26.41C8.88511 26.9125 8.05551 26.9125 7.52743 26.41C7.00667 25.8893 7.00691 25.045 7.52743 24.5245C8.04818 24.0037 8.89243 24.0037 9.41295 24.5245C9.93371 25.045 9.93371 25.8893 9.41319 26.41Z" fill="#161515"/>
</g>
<defs>
<clipPath id="clip0">
<rect width="32" height="32" fill="white"/>
</clipPath>
</defs>
</svg>
