<svg width="24" height="24" viewBox="0 0 24 24" fill="none" xmlns="http://www.w3.org/2000/svg">
  <g clip-path="url(#clip0)">
    <path d="M21.4982 9.70942L5.12039 0.347744C4.7224 0.120217 4.26959 0 3.81112 0C3.34668 0 2.88885 0.123204 2.48713 0.356278C1.67644 0.826585 1.17285 1.70096 1.17285 2.63827V21.3617C1.17285 22.2989 1.67644 23.1733 2.48692 23.6436C2.88864 23.8769 3.34657 24.0001 3.81101 24.0001C4.26927 24.0001 4.72208 23.8798 5.12028 23.6522L21.4979 14.2905C22.3177 13.8218 22.827 12.9442 22.827 11.9999C22.827 11.0557 22.3179 10.1781 21.4982 9.70942ZM14.4011 7.4958L12.1524 10.6281L6.77356 3.13578L14.4011 7.4958ZM3.70786 22.3909C3.56162 22.3767 3.41815 22.334 3.29004 22.2597C2.97109 22.0746 2.7729 21.7305 2.7729 21.3617V2.63816C2.7729 2.2694 2.97109 1.92529 3.29014 1.74021C3.41783 1.66608 3.56013 1.62192 3.70637 1.60688L11.1675 11.9999L3.70786 22.3909ZM6.77356 20.8642L12.1524 13.3718L14.4011 16.5041L6.77356 20.8642ZM20.704 12.9012L15.7976 15.7058L13.1372 11.9999L15.7976 8.29412L20.704 11.0987C21.0266 11.2831 21.227 11.6284 21.227 11.9999C21.227 12.3715 21.0267 12.7169 20.704 12.9012Z" fill="#161515" />
  </g>
  <defs>
    <clipPath id="clip0">
      <rect width="24" height="24" fill="white" />
    </clipPath>
  </defs>
</svg>
