<svg width="16" height="16" viewBox="0 0 16 16" fill="none" xmlns="http://www.w3.org/2000/svg">
  <path d="M13.0151 10.169C12.0888 10.169 11.2717 10.6103 10.7379 11.2861L5.78666 8.75407C5.85148 8.51231 5.89807 8.26252 5.89807 7.99963C5.89807 7.71344 5.84274 7.444 5.76553 7.18182L10.6949 4.66143C11.2258 5.36782 12.064 5.82953 13.0158 5.82953C14.6281 5.82953 15.9324 4.52527 15.9324 2.91441C15.9324 1.305 14.6281 0 13.0158 0C11.4072 0 10.1015 1.305 10.1015 2.91438C10.1015 3.17801 10.1481 3.42851 10.2136 3.67101L5.26308 6.20308C4.72855 5.52657 3.91001 5.0838 2.98224 5.0838C1.37138 5.0838 0.0678711 6.38951 0.0678711 7.99963C0.0678711 9.60975 1.37142 10.9147 2.98224 10.9147C3.9355 10.9147 4.77298 10.4516 5.30602 9.74449L10.2332 12.2649C10.156 12.5263 10.1 12.798 10.1 13.0849C10.1 14.695 11.4057 16 13.0144 16C14.6267 16 15.9309 14.695 15.9309 13.0849C15.9317 11.4733 14.6274 10.169 13.0151 10.169Z" fill="#010002" />
</svg>
