<svg width="64" height="18" viewBox="0 0 64 18" fill="none" xmlns="http://www.w3.org/2000/svg">
<path fill-rule="evenodd" clip-rule="evenodd" d="M5.91828 0.00307161C6.49005 -0.0004552 8.18932 -0.158255 8.90909 2.34646C9.39394 4.03367 10.1663 6.7974 11.2261 10.6376H11.6577C12.7943 6.58899 13.575 3.82526 14 2.34646C14.7273 -0.184346 16.5455 0.00312121 17.2727 0.00312121L22.8838 0.00312842V18H17.1648V7.39413H16.7813L13.5933 18H9.29051L6.10247 7.38627H5.71897V18H0V0.00312842L5.91828 0.00307161ZM31.0961 0.00312842V10.6169H31.5524L35.4303 1.88926C36.1831 0.152447 37.7875 0.00312842 37.7875 0.00312842H43.3218V18H37.4834V7.38627H37.0271L33.2252 16.1139C32.4724 17.8428 30.792 18 30.792 18H25.2577V0.00312842H31.0961ZM63.5019 8.55536C62.6875 10.9349 60.13 12.639 57.2984 12.639H51.1757V18H45.6237V8.55536H63.5019Z" fill="#0F754E"/>
<path fill-rule="evenodd" clip-rule="evenodd" d="M57.5666 0.00317383H45.333C45.6242 4.00989 48.9707 7.4399 52.435 7.4399H63.8881C64.549 4.10985 62.2738 0.00317383 57.5666 0.00317383Z" fill="url(#paint0_linear)"/>
<defs>
<linearGradient id="paint0_linear" x1="64.0004" y1="4.68119" x2="45.333" y2="4.68119" gradientUnits="userSpaceOnUse">
<stop stop-color="#1F5CD7"/>
<stop offset="1" stop-color="#02AEFF"/>
</linearGradient>
</defs>
</svg>
