<svg width="54" height="18" viewBox="0 0 54 18" fill="none" xmlns="http://www.w3.org/2000/svg">
<g clip-path="url(#clip0)">
<path d="M23.3998 17.7403H19.0254L21.7614 0.315857H26.1356L23.3998 17.7403Z" fill="#00579F"/>
<path d="M39.2567 0.741829C38.3939 0.38927 37.0254 0 35.3332 0C31.0134 0 27.9714 2.37257 27.9527 5.76463C27.9169 8.26729 30.1307 9.65733 31.7865 10.4918C33.4789 11.3445 34.0542 11.901 34.0542 12.6611C34.037 13.8284 32.6866 14.3665 31.4272 14.3665C29.6808 14.3665 28.745 14.0891 27.3229 13.4396L26.7469 13.1612L26.1348 17.0727C27.1607 17.5541 29.0509 17.9813 31.0134 18C35.6033 18 38.5915 15.6641 38.6269 12.0494C38.6443 10.0658 37.4753 8.54594 34.955 7.30397C33.4251 6.50671 32.4881 5.96912 32.4881 5.15338C32.506 4.4118 33.2806 3.65223 35.0077 3.65223C36.4297 3.61503 37.4746 3.9671 38.2661 4.31941L38.6618 4.50444L39.2567 0.741829Z" fill="#00579F"/>
<path d="M45.0716 11.5675C45.4318 10.5665 46.818 6.69223 46.818 6.69223C46.7999 6.72944 47.1776 5.67274 47.3936 5.02404L47.6993 6.52544C47.6993 6.52544 48.5277 10.6963 48.7075 11.5675C48.0239 11.5675 45.9356 11.5675 45.0716 11.5675ZM50.4712 0.315857H47.0876C46.0442 0.315857 45.2515 0.630722 44.8013 1.76157L38.3037 17.7401H42.8936C42.8936 17.7401 43.6493 15.5895 43.8117 15.1263C44.3152 15.1263 48.7803 15.1263 49.428 15.1263C49.5536 15.7381 49.95 17.7401 49.95 17.7401H54.0002L50.4712 0.315857Z" fill="#00579F"/>
<path d="M15.3722 0.315857L11.0883 12.1977L10.6201 9.78791C9.82812 7.00734 7.3442 3.98632 4.57227 2.48418L8.49622 17.7219H13.122L19.9978 0.315857H15.3722Z" fill="#00579F"/>
<path d="M7.10995 0.315857H0.072001L0 0.667924C5.49004 2.11389 9.12599 5.59932 10.6198 9.78865L9.08987 1.78054C8.83798 0.667677 8.06391 0.352566 7.10995 0.315857Z" fill="#FAA61A"/>
</g>
<defs>
<clipPath id="clip0">
<rect width="54" height="18" fill="white"/>
</clipPath>
</defs>
</svg>
