<svg width="16" height="16" viewBox="0 0 16 16" fill="none" xmlns="http://www.w3.org/2000/svg">
  <g clip-path="url(#clip0)">
    <path d="M15.9152 11.6799C15.8958 11.6382 15.8777 11.6035 15.861 11.5758C15.5834 11.0758 15.0529 10.4621 14.2698 9.73458L14.2533 9.71792L14.245 9.70975L14.2366 9.70138H14.2282C13.8728 9.36259 13.6478 9.1348 13.5535 9.01817C13.3811 8.79601 13.3425 8.57114 13.4367 8.34328C13.5033 8.17113 13.7534 7.80758 14.1865 7.25211C14.4143 6.95774 14.5947 6.7218 14.7279 6.54405C15.6888 5.26664 16.1053 4.45035 15.9775 4.09488L15.9279 4.01181C15.8946 3.9618 15.8085 3.91604 15.6698 3.87432C15.5308 3.83268 15.3531 3.8258 15.1365 3.85355L12.7373 3.87012C12.6985 3.85635 12.643 3.85763 12.5707 3.87432C12.4985 3.89101 12.4623 3.89938 12.4623 3.89938L12.4206 3.92025L12.3874 3.94531C12.3597 3.96188 12.3291 3.99103 12.2958 4.0327C12.2626 4.07422 12.2348 4.12295 12.2127 4.17847C11.9515 4.85047 11.6545 5.47526 11.3212 6.05281C11.1157 6.3972 10.927 6.69566 10.7546 6.94837C10.5825 7.20099 10.4381 7.38712 10.3215 7.50643C10.2048 7.62585 10.0995 7.72153 10.0049 7.7938C9.91046 7.86611 9.83836 7.89666 9.78844 7.88548C9.7384 7.87431 9.69128 7.86322 9.64666 7.85213C9.56896 7.80212 9.50646 7.73411 9.45934 7.64803C9.41201 7.56195 9.38015 7.45362 9.36349 7.3231C9.34692 7.1925 9.33711 7.08017 9.33431 6.98572C9.33171 6.89139 9.33291 6.75795 9.33854 6.5858C9.34432 6.41357 9.34692 6.29703 9.34692 6.23593C9.34692 6.02486 9.35103 5.79578 9.35929 5.54864C9.36769 5.3015 9.37449 5.10569 9.38018 4.96143C9.38584 4.81703 9.38847 4.66426 9.38847 4.50319C9.38847 4.34213 9.37866 4.21582 9.35929 4.12414C9.34015 4.03258 9.31077 3.94371 9.27205 3.85754C9.23309 3.77147 9.17608 3.70488 9.10127 3.65762C9.02631 3.61041 8.93311 3.57294 8.82221 3.5451C8.52783 3.47849 8.15298 3.44246 7.69748 3.43685C6.66455 3.42577 6.00084 3.49247 5.70649 3.63687C5.58987 3.69788 5.48433 3.78124 5.38997 3.88669C5.28998 4.00892 5.27603 4.07562 5.34821 4.08659C5.68149 4.13651 5.91742 4.25594 6.05628 4.44475L6.10632 4.5448C6.14524 4.61699 6.18411 4.74479 6.223 4.92803C6.26184 5.11126 6.2869 5.31396 6.29793 5.53601C6.32565 5.9415 6.32565 6.2886 6.29793 6.57734C6.27012 6.86621 6.24386 7.09108 6.2188 7.25214C6.19374 7.41321 6.15627 7.54372 6.10632 7.64365C6.05628 7.74362 6.02299 7.80472 6.0063 7.82689C5.98964 7.84907 5.97575 7.86304 5.96472 7.86853C5.89253 7.89619 5.81746 7.91028 5.73975 7.91028C5.66194 7.91028 5.56757 7.87136 5.45652 7.79357C5.3455 7.71578 5.23028 7.60893 5.11085 7.47285C4.99143 7.33673 4.85674 7.14652 4.70674 6.90218C4.55685 6.65785 4.40133 6.36907 4.24027 6.03586L4.10701 5.7942C4.02371 5.63874 3.90991 5.41238 3.76551 5.11532C3.62102 4.81814 3.49331 4.53068 3.38229 4.25299C3.33791 4.13637 3.27124 4.04758 3.18239 3.98648L3.14069 3.96142C3.11297 3.93924 3.06848 3.91569 3.00744 3.8906C2.94631 3.86554 2.88253 3.84756 2.81582 3.83651L0.533257 3.85308C0.300008 3.85308 0.141747 3.90592 0.0584144 4.01146L0.0250639 4.06138C0.00840327 4.08919 0 4.1336 0 4.19472C0 4.25582 0.0166606 4.33081 0.0500111 4.4196C0.383224 5.20274 0.745586 5.95801 1.1371 6.68553C1.52861 7.41306 1.86882 7.9991 2.15754 8.44313C2.44631 8.88748 2.74066 9.30686 3.04058 9.70105C3.3405 10.0954 3.53903 10.3481 3.63617 10.4591C3.73342 10.5704 3.8098 10.6535 3.86533 10.709L4.07363 10.9089C4.20692 11.0423 4.40264 11.2019 4.6609 11.3879C4.91921 11.574 5.20518 11.7573 5.51896 11.9379C5.8328 12.1183 6.19791 12.2655 6.61448 12.3793C7.031 12.4932 7.4364 12.5389 7.83074 12.5169H8.78877C8.98307 12.5001 9.13027 12.439 9.23032 12.3336L9.26347 12.2918C9.28576 12.2587 9.30662 12.2072 9.32588 12.1379C9.34537 12.0684 9.35506 11.992 9.35506 11.9088C9.34937 11.67 9.36755 11.4548 9.40909 11.2632C9.45061 11.0717 9.49794 10.9273 9.55087 10.8301C9.60377 10.7329 9.66347 10.6509 9.72991 10.5844C9.79649 10.5178 9.84394 10.4775 9.87177 10.4636C9.89943 10.4496 9.92152 10.4401 9.93818 10.4344C10.0715 10.39 10.2283 10.433 10.409 10.5637C10.5895 10.6942 10.7588 10.8553 10.9172 11.0469C11.0755 11.2386 11.2657 11.4536 11.4878 11.6924C11.71 11.9312 11.9044 12.1088 12.0709 12.2256L12.2375 12.3256C12.3487 12.3923 12.4931 12.4534 12.6708 12.5089C12.8483 12.5644 13.0037 12.5783 13.1372 12.5505L15.2698 12.5173C15.4807 12.5173 15.6448 12.4823 15.7612 12.413C15.8779 12.3436 15.9472 12.2671 15.9695 12.184C15.9918 12.1007 15.993 12.0062 15.9738 11.9006C15.954 11.7952 15.9346 11.7215 15.9152 11.6799Z" fill="white" />
  </g>
  <defs>
    <clipPath id="clip0">
      <rect width="16" height="16" fill="white" transform="matrix(-1 0 0 1 16 0)" />
    </clipPath>
  </defs>
</svg>
