<svg width="24" height="24" viewBox="0 0 24 24" fill="none" xmlns="http://www.w3.org/2000/svg">
  <path d="M23.8782 11.1802H22.7267V5.88323C22.7267 4.61335 21.6936 3.58025 20.4237 3.58025H18.8641L17.2682 0.710733C17.0249 0.272195 16.562 0 16.06 0C15.826 0 15.5939 0.0603445 15.3889 0.174082L9.26385 3.58018H2.42212C1.15224 3.58018 0.119141 4.61328 0.119141 5.88316V21.6969C0.119141 22.9668 1.15224 23.9999 2.42212 23.9999H20.4237C21.6936 23.9999 22.7267 22.9668 22.7267 21.6969V17.0527H23.8782V11.1802ZM20.4237 4.5014C21.133 4.5014 21.7125 5.04027 21.7903 5.72979H20.0594L19.3767 4.5014H20.4237ZM15.837 0.979201C16.053 0.858082 16.3437 0.942794 16.463 1.15794L19.0055 5.72936H7.29434L15.837 0.979201ZM21.8055 21.6969C21.8055 22.4588 21.1855 23.0788 20.4236 23.0788H2.42212C1.66029 23.0788 1.04029 22.4588 1.04029 21.6969V5.88323C1.04029 5.1214 1.66029 4.5014 2.42212 4.5014H7.60753L5.3985 5.72986H2.71001C2.45531 5.72986 2.2494 5.9362 2.2494 6.19048C2.2494 6.44475 2.45531 6.65109 2.71001 6.65109H3.74175H20.5716H21.8055V11.1806H18.4371C16.8729 11.1806 15.5999 12.4537 15.5999 14.0179V14.2159C15.5999 15.7802 16.873 17.0532 18.4371 17.0532H21.8055V21.6969ZM22.957 16.1316H22.7267H18.4371C17.3805 16.1316 16.521 15.2721 16.521 14.2154V14.0174C16.521 12.9607 17.3805 12.1012 18.4371 12.1012H22.7267H22.957V16.1316ZM19.8479 14.1542C19.8479 14.7162 19.3928 15.1712 18.831 15.1712C18.269 15.1712 17.814 14.7161 17.814 14.1542C17.814 13.5924 18.2691 13.1373 18.831 13.1373C19.3929 13.1372 19.8479 13.5927 19.8479 14.1542Z" fill="#112145" />
</svg>
